<svg width="60" height="24" viewBox="0 0 60 24" fill="none" xmlns="http://www.w3.org/2000/svg">
<g clip-path="url(#clip0_335_1481)">
<g filter="url(#filter0_f_335_1481)">
<rect x="5.8999" y="9" width="6" height="6" rx="3" fill="#F87171"/>
</g>
<g filter="url(#filter1_f_335_1481)">
<rect x="48.5" y="9" width="6" height="6" rx="3" fill="#F87171"/>
</g>
<foreignObject x="-2" y="0" width="64" height="24"><div xmlns="http://www.w3.org/1999/xhtml" style="backdrop-filter:blur(2px);clip-path:url(#bgblur_1_335_1481_clip_path);height:100%;width:100%"></div></foreignObject><g filter="url(#filter2_f_335_1481)" data-figma-bg-blur-radius="4">
<path d="M10 4C14.4183 4 18 7.58172 18 12C18 16.4183 14.4183 20 10 20C5.58172 20 2 16.4183 2 12C2 7.58172 5.58172 4 10 4ZM50 4C54.4183 4 58 7.58172 58 12C58 16.4183 54.4183 20 50 20C45.5817 20 42 16.4183 42 12C42 7.58172 45.5817 4 50 4Z" fill="white" fill-opacity="0.05"/>
</g>
</g>
<defs>
<filter id="filter0_f_335_1481" x="3.8999" y="7" width="10" height="10" filterUnits="userSpaceOnUse" color-interpolation-filters="sRGB">
<feFlood flood-opacity="0" result="BackgroundImageFix"/>
<feBlend mode="normal" in="SourceGraphic" in2="BackgroundImageFix" result="shape"/>
<feGaussianBlur stdDeviation="1" result="effect1_foregroundBlur_335_1481"/>
</filter>
<filter id="filter1_f_335_1481" x="46.5" y="7" width="10" height="10" filterUnits="userSpaceOnUse" color-interpolation-filters="sRGB">
<feFlood flood-opacity="0" result="BackgroundImageFix"/>
<feBlend mode="normal" in="SourceGraphic" in2="BackgroundImageFix" result="shape"/>
<feGaussianBlur stdDeviation="1" result="effect1_foregroundBlur_335_1481"/>
</filter>
<filter id="filter2_f_335_1481" x="-2" y="0" width="64" height="24" filterUnits="userSpaceOnUse" color-interpolation-filters="sRGB">
<feFlood flood-opacity="0" result="BackgroundImageFix"/>
<feBlend mode="normal" in="SourceGraphic" in2="BackgroundImageFix" result="shape"/>
<feGaussianBlur stdDeviation="2" result="effect1_foregroundBlur_335_1481"/>
</filter>
<clipPath id="bgblur_1_335_1481_clip_path" transform="translate(2 0)"><path d="M10 4C14.4183 4 18 7.58172 18 12C18 16.4183 14.4183 20 10 20C5.58172 20 2 16.4183 2 12C2 7.58172 5.58172 4 10 4ZM50 4C54.4183 4 58 7.58172 58 12C58 16.4183 54.4183 20 50 20C45.5817 20 42 16.4183 42 12C42 7.58172 45.5817 4 50 4Z"/>
</clipPath><clipPath id="clip0_335_1481">
<rect width="60" height="24" fill="white"/>
</clipPath>
</defs>
</svg>
