<svg width="60" height="24" viewBox="0 0 60 24" fill="none" xmlns="http://www.w3.org/2000/svg">
<g clip-path="url(#clip0_335_1471)">
<g filter="url(#filter0_f_335_1471)">
<rect x="16" y="8" width="8" height="8" rx="4" fill="#FB923C"/>
</g>
<g filter="url(#filter1_f_335_1471)">
<rect x="35.1001" y="8" width="8" height="8" rx="4" fill="#FB923C"/>
</g>
<foreignObject x="5" y="0" width="50" height="24"><div xmlns="http://www.w3.org/1999/xhtml" style="backdrop-filter:blur(2px);clip-path:url(#bgblur_1_335_1471_clip_path);height:100%;width:100%"></div></foreignObject><g filter="url(#filter2_f_335_1471)" data-figma-bg-blur-radius="4">
<path d="M17 4C19.5419 4 21.8058 5.18589 23.2706 7.03439C24.4052 8.46622 25.5 10.1731 25.5 12C25.5 13.8262 24.4053 15.5324 23.2715 16.9641C21.8069 18.8134 19.5426 20 17 20C12.5817 20 9 16.4183 9 12C9 7.58172 12.5817 4 17 4ZM43 4C47.4183 4 51 7.58172 51 12C51 16.4183 47.4183 20 43 20C40.4572 20 38.1922 18.8133 36.7273 16.9637C35.5936 15.5323 34.5 13.826 34.5 12C34.5 10.1734 35.5938 8.46634 36.7283 7.03471C38.1933 5.18598 40.4578 4 43 4Z" fill="white" fill-opacity="0.05"/>
</g>
</g>
<defs>
<filter id="filter0_f_335_1471" x="14" y="6" width="12" height="12" filterUnits="userSpaceOnUse" color-interpolation-filters="sRGB">
<feFlood flood-opacity="0" result="BackgroundImageFix"/>
<feBlend mode="normal" in="SourceGraphic" in2="BackgroundImageFix" result="shape"/>
<feGaussianBlur stdDeviation="1" result="effect1_foregroundBlur_335_1471"/>
</filter>
<filter id="filter1_f_335_1471" x="33.1001" y="6" width="12" height="12" filterUnits="userSpaceOnUse" color-interpolation-filters="sRGB">
<feFlood flood-opacity="0" result="BackgroundImageFix"/>
<feBlend mode="normal" in="SourceGraphic" in2="BackgroundImageFix" result="shape"/>
<feGaussianBlur stdDeviation="1" result="effect1_foregroundBlur_335_1471"/>
</filter>
<filter id="filter2_f_335_1471" x="5" y="0" width="50" height="24" filterUnits="userSpaceOnUse" color-interpolation-filters="sRGB">
<feFlood flood-opacity="0" result="BackgroundImageFix"/>
<feBlend mode="normal" in="SourceGraphic" in2="BackgroundImageFix" result="shape"/>
<feGaussianBlur stdDeviation="2" result="effect1_foregroundBlur_335_1471"/>
</filter>
<clipPath id="bgblur_1_335_1471_clip_path" transform="translate(-5 0)"><path d="M17 4C19.5419 4 21.8058 5.18589 23.2706 7.03439C24.4052 8.46622 25.5 10.1731 25.5 12C25.5 13.8262 24.4053 15.5324 23.2715 16.9641C21.8069 18.8134 19.5426 20 17 20C12.5817 20 9 16.4183 9 12C9 7.58172 12.5817 4 17 4ZM43 4C47.4183 4 51 7.58172 51 12C51 16.4183 47.4183 20 43 20C40.4572 20 38.1922 18.8133 36.7273 16.9637C35.5936 15.5323 34.5 13.826 34.5 12C34.5 10.1734 35.5938 8.46634 36.7283 7.03471C38.1933 5.18598 40.4578 4 43 4Z"/>
</clipPath><clipPath id="clip0_335_1471">
<rect width="60" height="24" fill="white"/>
</clipPath>
</defs>
</svg>
