<svg width="335" height="200" viewBox="0 0 335 200" fill="none" xmlns="http://www.w3.org/2000/svg">
<rect x="1" y="1" width="333" height="198" rx="19" fill="#FDF1EF" stroke="#F3C9E4" stroke-width="2"/>
<rect x="16.75" y="16.75" width="301.5" height="166.5" rx="9.25" fill="#FEFCF7" stroke="white" stroke-width="1.5" stroke-dasharray="3 3"/>
<mask id="mask0_335_1227" style="mask-type:alpha" maskUnits="userSpaceOnUse" x="0" y="0" width="335" height="200">
<rect x="1" y="1" width="333" height="198" rx="19" fill="#FDF1EF" stroke="#F3C9E4" stroke-width="2"/>
</mask>
<g mask="url(#mask0_335_1227)">
<path d="M153.246 -122.001C135.872 -105.512 135.792 -104.305 150.109 -89.2639C160.646 -78.2444 162.094 -75.5097 162.898 -65.6967C163.783 -54.6772 161.129 -48.9664 149.868 -37.3839C136.677 -23.7906 136.677 -21.3775 149.305 -8.99068C155.257 -3.119 157.911 0.0983734 160.002 4.20051C162.576 9.42873 162.737 10.2331 162.737 17.8743C162.737 24.3895 162.415 26.5612 161.129 29.1351C157.992 35.3285 154.694 39.5915 148.822 45.061C137.24 55.9196 137.079 59.8609 147.776 70.8804C158.555 81.8998 160.405 83.3477 164.748 83.3477C169.091 83.3477 170.941 81.8998 181.72 70.8804C192.659 59.6196 192.337 56.4022 179.387 43.7741C173.998 38.4654 171.505 35.3285 169.172 30.7438C166.196 24.8721 166.196 24.7112 166.518 17.2308C167 6.5331 169.091 2.59183 180.111 -8.82981C192.82 -22.021 192.82 -23.6297 179.548 -37.3839C168.368 -48.9664 165.713 -54.6772 166.598 -65.6967C167.402 -75.5097 168.85 -78.2444 179.387 -89.2639C193.704 -104.305 193.624 -105.512 176.25 -122.001C168.931 -128.918 168.689 -128.998 164.748 -128.998C160.807 -128.998 160.565 -128.918 153.246 -122.001Z" fill="url(#paint0_linear_335_1227)" fill-opacity="0.2"/>
<path d="M120.915 -86.4503C120.03 -86.0481 115.445 -81.7851 110.7 -76.959C97.4282 -63.2048 97.4282 -61.4353 110.7 -48.3245C116.089 -42.9354 118.904 -39.4768 120.754 -35.6964C123.167 -30.8703 123.328 -29.9051 123.328 -22.4247C123.328 -15.0248 123.087 -14.0596 120.915 -9.95744C119.548 -7.54442 115.124 -2.0749 111.022 2.10767C102.576 10.7141 101.289 12.725 101.048 17.2293C100.887 21.251 102.174 22.9401 111.987 32.5922C124.534 44.8182 126.706 44.8182 138.691 33.2357C148.343 23.9858 150.273 21.251 150.273 17.0684C150.273 12.8054 149.389 11.5185 140.621 2.50985C129.361 -8.99223 126.143 -16.2313 127.671 -25.9638C129.119 -34.9724 132.256 -40.2007 141.506 -49.2093L149.791 -57.2527L150.113 -62.1592L150.434 -67.1461L140.46 -77.2003L130.406 -87.1742L126.465 -87.0937C124.293 -87.0937 121.8 -86.772 120.915 -86.4503Z" fill="url(#paint1_linear_335_1227)" fill-opacity="0.2"/>
<path d="M189.12 -77.2797L179.066 -67.145L179.388 -62.2386L179.709 -57.2516L187.914 -49.2082C197.164 -40.1192 200.461 -34.6497 201.829 -26.0432C203.357 -16.2302 200.14 -9.07161 188.879 2.5109C180.112 11.5195 179.227 12.8065 179.227 17.0695C179.227 21.252 181.157 23.9064 190.809 33.2367C203.035 44.9801 204.885 44.8997 217.996 32.1107C227.085 23.1825 228.292 21.3325 228.292 16.426C228.211 12.3239 227.97 12.0021 218.398 2.10873C214.296 -2.07384 209.953 -7.54336 208.585 -9.95638C206.414 -14.0585 206.172 -15.0237 206.172 -22.4237C206.172 -29.904 206.333 -30.8692 208.746 -35.6953C210.596 -39.5561 213.331 -42.8539 218.881 -48.3235C223.144 -52.506 227.005 -57.0908 227.889 -58.9408C230.222 -64.0885 228.533 -67.3059 217.916 -77.8428L209.068 -86.6905L204.161 -87.0123L199.255 -87.334L189.12 -77.2797Z" fill="url(#paint2_linear_335_1227)" fill-opacity="0.2"/>
<path d="M81.5018 -46.2329C80.2148 -45.4286 75.2279 -40.7634 70.4823 -35.8569C62.0367 -27.2505 61.7954 -26.8483 61.7954 -23.3896C61.7954 -19.0462 64.3693 -15.5071 74.8257 -5.37239C85.7648 5.16447 89.0626 4.68187 102.495 -9.31367C114.882 -22.1831 114.801 -24.3548 101.289 -37.546C90.4299 -48.1633 87.0517 -49.6916 81.5018 -46.2329Z" fill="url(#paint3_linear_335_1227)" fill-opacity="0.2"/>
<path d="M238.349 -46.4742C234.488 -44.4634 219.527 -29.2613 218.562 -26.2853C216.873 -21.1375 218.24 -18.4832 227.008 -9.31367C240.44 4.68187 243.738 5.16447 254.677 -5.37239C265.134 -15.5071 267.707 -19.0462 267.707 -23.3896C267.707 -26.8483 267.466 -27.2505 258.699 -36.2591C253.712 -41.3264 248.645 -45.9916 247.438 -46.6351C244.623 -48.0829 241.325 -48.0829 238.349 -46.4742Z" fill="url(#paint4_linear_335_1227)" fill-opacity="0.2"/>
<path d="M153.246 123.984C135.872 140.473 135.792 141.679 150.109 156.72C160.646 167.74 162.094 170.475 162.898 180.288C163.783 191.307 161.129 197.018 149.868 208.6C136.677 222.194 136.677 224.607 149.305 236.994C155.257 242.865 157.911 246.083 160.002 250.185C162.576 255.413 162.737 256.217 162.737 263.859C162.737 270.374 162.415 272.546 161.129 275.119C157.992 281.313 154.694 285.576 148.822 291.045C137.24 301.904 137.079 305.845 147.776 316.865C158.555 327.884 160.405 329.332 164.748 329.332C169.091 329.332 170.941 327.884 181.72 316.865C192.659 305.604 192.337 302.387 179.387 289.758C173.998 284.45 171.505 281.313 169.172 276.728C166.196 270.856 166.196 270.696 166.518 263.215C167 252.517 169.091 248.576 180.111 237.155C192.82 223.963 192.82 222.355 179.548 208.6C168.368 197.018 165.713 191.307 166.598 180.288C167.402 170.475 168.85 167.74 179.387 156.72C193.704 141.679 193.624 140.473 176.25 123.984C168.931 117.066 168.689 116.986 164.748 116.986C160.807 116.986 160.565 117.066 153.246 123.984Z" fill="url(#paint5_linear_335_1227)" fill-opacity="0.2"/>
<path d="M120.915 159.534C120.03 159.936 115.445 164.199 110.7 169.025C97.4282 182.78 97.4282 184.549 110.7 197.66C116.089 203.049 118.904 206.508 120.754 210.288C123.167 215.114 123.328 216.079 123.328 223.56C123.328 230.96 123.087 231.925 120.915 236.027C119.548 238.44 115.124 243.909 111.022 248.092C102.576 256.698 101.289 258.709 101.048 263.214C100.887 267.235 102.174 268.924 111.987 278.577C124.534 290.803 126.706 290.803 138.691 279.22C148.343 269.97 150.273 267.235 150.273 263.053C150.273 258.79 149.389 257.503 140.621 248.494C129.361 236.992 126.143 229.753 127.671 220.021C129.119 211.012 132.256 205.784 141.506 196.775L149.791 188.732L150.113 183.825L150.434 178.838L140.46 168.784L130.406 158.81L126.465 158.891C124.293 158.891 121.8 159.212 120.915 159.534Z" fill="url(#paint6_linear_335_1227)" fill-opacity="0.2"/>
<path d="M189.12 168.705L179.066 178.839L179.388 183.746L179.709 188.733L187.914 196.776C197.164 205.865 200.461 211.335 201.829 219.941C203.357 229.754 200.14 236.913 188.879 248.495C180.112 257.504 179.227 258.791 179.227 263.054C179.227 267.236 181.157 269.891 190.809 279.221C203.035 290.964 204.885 290.884 217.996 278.095C227.085 269.167 228.292 267.317 228.292 262.41C228.211 258.308 227.97 257.986 218.398 248.093C214.296 243.911 209.953 238.441 208.585 236.028C206.414 231.926 206.172 230.961 206.172 223.561C206.172 216.08 206.333 215.115 208.746 210.289C210.596 206.428 213.331 203.13 218.881 197.661C223.144 193.478 227.005 188.894 227.889 187.044C230.222 181.896 228.533 178.678 217.916 168.142L209.068 159.294L204.161 158.972L199.255 158.65L189.12 168.705Z" fill="url(#paint7_linear_335_1227)" fill-opacity="0.2"/>
<path d="M81.5018 199.751C80.2148 200.556 75.2279 205.221 70.4823 210.127C62.0367 218.734 61.7954 219.136 61.7954 222.595C61.7954 226.938 64.3693 230.477 74.8257 240.612C85.7648 251.149 89.0626 250.666 102.495 236.671C114.882 223.801 114.801 221.63 101.289 208.438C90.4299 197.821 87.0517 196.293 81.5018 199.751Z" fill="url(#paint8_linear_335_1227)" fill-opacity="0.2"/>
<path d="M238.349 199.51C234.488 201.521 219.527 216.723 218.562 219.699C216.873 224.847 218.24 227.501 227.008 236.671C240.44 250.666 243.738 251.149 254.677 240.612C265.134 230.477 267.707 226.938 267.707 222.595C267.707 219.136 267.466 218.734 258.699 209.725C253.712 204.658 248.645 199.993 247.438 199.349C244.623 197.901 241.325 197.901 238.349 199.51Z" fill="url(#paint9_linear_335_1227)" fill-opacity="0.2"/>
<path d="M280.54 -0.0591736C263.167 16.4298 263.086 17.6363 277.403 32.6775C287.94 43.697 289.388 46.4317 290.192 56.2447C291.077 67.2642 288.423 72.975 277.162 84.5575C263.971 98.1509 263.971 100.564 276.599 112.951C282.551 118.822 285.206 122.04 287.297 126.142C289.871 131.37 290.032 132.174 290.032 139.816C290.032 146.331 289.71 148.503 288.423 151.076C285.286 157.27 281.988 161.533 276.117 167.002C264.534 177.861 264.373 181.802 275.071 192.822C285.849 203.841 287.699 205.289 292.042 205.289C296.386 205.289 298.236 203.841 309.014 192.822C319.953 181.561 319.631 178.344 306.681 165.715C301.292 160.407 298.799 157.27 296.466 152.685C293.49 146.813 293.49 146.653 293.812 139.172C294.295 128.475 296.386 124.533 307.405 113.112C320.114 99.9204 320.114 98.3117 306.842 84.5575C295.662 72.975 293.008 67.2642 293.892 56.2447C294.697 46.4317 296.145 43.697 306.681 32.6775C320.999 17.6363 320.918 16.4298 303.545 -0.0591736C296.225 -6.9765 295.984 -7.05695 292.042 -7.05695C288.101 -7.05695 287.86 -6.9765 280.54 -0.0591736Z" fill="url(#paint10_linear_335_1227)" fill-opacity="0.2"/>
<path d="M248.207 35.4931C247.322 35.8953 242.737 40.1583 237.992 44.9843C224.72 58.7385 224.72 60.5081 237.992 73.6189C243.381 79.0079 246.196 82.4666 248.046 86.247C250.459 91.0731 250.62 92.0383 250.62 99.5186C250.62 106.919 250.379 107.884 248.207 111.986C246.84 114.399 242.416 119.868 238.314 124.051C229.868 132.657 228.581 134.668 228.34 139.173C228.179 143.194 229.466 144.883 239.279 154.536C251.826 166.762 253.998 166.762 265.983 155.179C275.635 145.929 277.565 143.194 277.565 139.012C277.565 134.749 276.681 133.462 267.913 124.453C256.653 112.951 253.435 105.712 254.963 95.9795C256.411 86.9709 259.548 81.7427 268.798 72.7341L277.083 64.6907L277.405 59.7842L277.726 54.7973L267.752 44.743L257.698 34.7692L253.757 34.8496C251.585 34.8496 249.092 35.1714 248.207 35.4931Z" fill="url(#paint11_linear_335_1227)" fill-opacity="0.2"/>
<path d="M316.415 44.6617L306.36 54.7964L306.682 59.7029L307.004 64.6898L315.208 72.7332C324.458 81.8222 327.756 87.2918 329.123 95.8982C330.651 105.711 327.434 112.87 316.173 124.452C307.406 133.461 306.521 134.748 306.521 139.011C306.521 143.193 308.452 145.848 318.104 155.178C330.33 166.922 332.18 166.841 345.29 154.052C354.38 145.124 355.586 143.274 355.586 138.367C355.506 134.265 355.264 133.944 345.693 124.05C341.59 119.868 337.247 114.398 335.88 111.985C333.708 107.883 333.467 106.918 333.467 99.5177C333.467 92.0374 333.628 91.0722 336.041 86.2461C337.891 82.3853 340.625 79.0875 346.175 73.618C350.438 69.4354 354.299 64.8506 355.184 63.0006C357.516 57.8529 355.827 54.6355 345.21 44.0986L336.362 35.2509L331.456 34.9291L326.549 34.6074L316.415 44.6617Z" fill="url(#paint12_linear_335_1227)" fill-opacity="0.2"/>
<path d="M208.794 75.7085C207.507 76.5128 202.52 81.178 197.774 86.0845C189.329 94.6909 189.087 95.0931 189.087 98.5518C189.087 102.895 191.661 106.434 202.118 116.569C213.057 127.106 216.355 126.623 229.787 112.628C242.174 99.7583 242.093 97.5866 228.581 84.3954C217.722 73.7781 214.344 72.2498 208.794 75.7085Z" fill="url(#paint13_linear_335_1227)" fill-opacity="0.2"/>
<path d="M32.4506 -0.0591736C15.0768 16.4298 14.9964 17.6363 29.3136 32.6775C39.8505 43.697 41.2983 46.4317 42.1026 56.2447C42.9874 67.2642 40.3331 72.975 29.0723 84.5575C15.8811 98.1509 15.8811 100.564 28.5093 112.951C34.4614 118.822 37.1157 122.04 39.207 126.142C41.7809 131.37 41.9418 132.174 41.9418 139.816C41.9418 146.331 41.62 148.503 40.3331 151.076C37.1962 157.27 33.8984 161.533 28.0267 167.002C16.4442 177.861 16.2833 181.802 26.981 192.822C37.7592 203.841 39.6092 205.289 43.9526 205.289C48.2961 205.289 50.1461 203.841 60.9242 192.822C71.8633 181.561 71.5415 178.344 58.5916 165.715C53.2026 160.407 50.7091 157.27 48.3765 152.685C45.4004 146.813 45.4004 146.653 45.7222 139.172C46.2048 128.475 48.2961 124.533 59.3155 113.112C72.0241 99.9204 72.0241 98.3117 58.7525 84.5575C47.5722 72.975 44.9178 67.2642 45.8026 56.2447C46.607 46.4317 48.0548 43.697 58.5916 32.6775C72.9089 17.6363 72.8285 16.4298 55.4547 -0.0591736C48.1352 -6.9765 47.8939 -7.05695 43.9526 -7.05695C40.0114 -7.05695 39.7701 -6.9765 32.4506 -0.0591736Z" fill="url(#paint14_linear_335_1227)" fill-opacity="0.2"/>
<path d="M0.119534 35.4931C-0.765242 35.8953 -5.34999 40.1583 -10.0956 44.9843C-23.3672 58.7385 -23.3672 60.5081 -10.0956 73.6189C-4.70651 79.0079 -1.89132 82.4666 -0.0413342 86.247C2.37169 91.0731 2.53256 92.0383 2.53256 99.5186C2.53256 106.919 2.29125 107.884 0.119534 111.986C-1.24785 114.399 -5.67172 119.868 -9.77386 124.051C-18.2194 132.657 -19.5064 134.668 -19.7477 139.173C-19.9086 143.194 -18.6216 144.883 -8.80865 154.536C3.73907 166.762 5.91079 166.762 17.8955 155.179C27.5476 145.929 29.478 143.194 29.478 139.012C29.478 134.749 28.5932 133.462 19.8259 124.453C8.56511 112.951 5.34775 105.712 6.876 95.9795C8.32381 86.9709 11.4607 81.7427 20.7107 72.7341L28.9954 64.6907L29.3171 59.7842L29.6388 54.7973L19.665 44.743L9.61076 34.7692L5.66949 34.8496C3.49777 34.8496 1.00431 35.1714 0.119534 35.4931Z" fill="url(#paint15_linear_335_1227)" fill-opacity="0.2"/>
<path d="M68.3272 44.6617L58.2729 54.7964L58.5947 59.7029L58.9164 64.6898L67.1207 72.7332C76.3706 81.8222 79.6684 87.2918 81.0358 95.8982C82.564 105.711 79.3467 112.87 68.0859 124.452C59.3186 133.461 58.4338 134.748 58.4338 139.011C58.4338 143.193 60.3642 145.848 70.0163 155.178C82.2423 166.922 84.0923 166.841 97.2031 154.052C106.292 145.124 107.499 143.274 107.499 138.367C107.418 134.265 107.177 133.944 97.6052 124.05C93.5031 119.868 89.1596 114.398 87.7923 111.985C85.6205 107.883 85.3792 106.918 85.3792 99.5177C85.3792 92.0374 85.5401 91.0722 87.9531 86.2461C89.8031 82.3853 92.5379 79.0875 98.0878 73.618C102.351 69.4354 106.212 64.8506 107.096 63.0006C109.429 57.8529 107.74 54.6355 97.1226 44.0986L88.2749 35.2509L83.3684 34.9291L78.4619 34.6074L68.3272 44.6617Z" fill="url(#paint16_linear_335_1227)" fill-opacity="0.2"/>
<path d="M117.554 75.4672C113.693 77.478 98.732 92.6801 97.7668 95.6561C96.0777 100.804 97.445 103.458 106.212 112.628C119.645 126.623 122.943 127.106 133.882 116.569C144.338 106.434 146.912 102.895 146.912 98.5518C146.912 95.0931 146.671 94.6909 137.903 85.6823C132.916 80.615 127.849 75.9498 126.643 75.3063C123.827 73.8585 120.53 73.8585 117.554 75.4672Z" fill="url(#paint17_linear_335_1227)" fill-opacity="0.2"/>
</g>
<path d="M51.6855 73.3828C55.4863 73.3828 58.2207 76.8281 58.248 82.2422C58.2207 87.7109 55.4863 91.1289 51.6855 91.1289C47.8848 91.1289 45.0957 87.7109 45.123 82.2422C45.0957 76.8281 47.8848 73.3828 51.6855 73.3828ZM51.6855 76.5273C49.7715 76.5273 48.4863 78.5508 48.4863 82.2422C48.4863 85.9609 49.7715 87.957 51.6855 87.957C53.627 87.957 54.8848 85.9609 54.9121 82.2422C54.8848 78.5508 53.627 76.5273 51.6855 76.5273ZM64.6191 71.6328V81.0117H68.2832V83.9102H64.6191V96.5156H61.1191V71.6328H64.6191ZM76.4043 93.4805H86.6309V91.7305H76.4043V93.4805ZM90.0762 71.6602V85.9883H86.6035V71.6602H90.0762ZM69.2129 82.1055C73.8613 82.1055 79.9043 82.1055 85.2363 81.4492L85.4004 83.9102C83.4863 84.2383 81.5176 84.457 79.5762 84.5938V87.5195H76.4043V89.1055H86.6309V87H90.0762V96.2422H72.959V87H76.1035V84.7852C73.793 84.8809 71.5918 84.8945 69.623 84.8945L69.2129 82.1055ZM79.4395 73.2734C79.4395 75.3789 81.2441 77.375 85.0996 78.1133L83.623 80.7383C80.7793 80.1641 78.7832 78.8379 77.6895 77.0469C76.6094 79.002 74.5859 80.4785 71.6191 81.1211L70.0879 78.4688C74.0254 77.6758 75.8301 75.543 75.8574 73.2734V72.2617H79.4395V73.2734ZM103.037 78.4141C103.037 82.4336 105.088 86.7266 109.271 88.4766L107.385 91.2109C104.445 89.9668 102.422 87.4922 101.314 84.457C100.18 87.752 98.1152 90.4863 95.1895 91.8398L93.1934 89.0781C97.3223 87.2461 99.4551 82.625 99.4551 78.4141V76.8828H94.1777V74.0391H108.232V76.8828H103.037V78.4141ZM114.221 71.6328V96.5156H110.693V71.6328H114.221ZM130.271 73.6836V85.6328H118.322V73.6836H130.271ZM121.768 76.4727V82.8984H126.826V76.4727H121.768ZM137.326 71.6328V78.7969H140.689V81.668H137.326V89.7891H133.826V71.6328H137.326ZM138.229 93.2891V96.0781H121.193V88.0117H124.666V93.2891H138.229ZM167.869 71.6328V80.875H171.533V83.7188H167.869V96.5703H164.369V71.6328H167.869ZM160.896 73.9297V76.7461H152.693V87.6562C156.303 87.6152 159.283 87.4512 162.592 86.8633L162.975 89.7891C159.119 90.4453 155.729 90.5547 151.326 90.5273H149.221V73.9297H160.896ZM183.783 72.0977C189.307 72.0977 192.807 73.9297 192.834 76.9648C192.807 79.9727 189.307 81.8047 183.783 81.7773C178.287 81.8047 174.705 79.9727 174.705 76.9648C174.705 73.9297 178.287 72.0977 183.783 72.0977ZM183.783 74.8047C180.311 74.8047 178.314 75.543 178.342 76.9648C178.314 78.3594 180.311 79.0703 183.783 79.0703C187.229 79.0703 189.225 78.3594 189.225 76.9648C189.225 75.543 187.229 74.8047 183.783 74.8047ZM192.424 87.7656V96.2422H175.061V87.7656H192.424ZM178.506 90.5273V93.4531H189.006V90.5273H178.506ZM195.131 83.2266V86.0156H172.436V83.2266H195.131ZM224.006 71.6328V96.5156H220.479V71.6328H224.006ZM216.541 74.2305C216.541 81.7773 213.889 88.0391 205.002 92.25L203.17 89.4609C209.596 86.4258 212.426 82.4883 212.986 76.9648H204.51V74.2305H216.541ZM248.205 71.6328V96.5156H244.732V71.6328H248.205ZM227.396 89.4883C229.297 89.4746 231.471 89.4746 233.74 89.4062V87.3008C231.006 86.8223 229.229 85.127 229.256 82.7891C229.229 80 231.771 78.1133 235.436 78.1133C239.127 78.1133 241.697 80 241.697 82.7891C241.697 85.1133 239.92 86.8086 237.186 87.3008V89.2969C239.264 89.2012 241.369 89.0371 243.365 88.7773L243.611 91.3477C238.17 92.2773 232.291 92.332 227.861 92.332L227.396 89.4883ZM243.01 74.3945V77.1289H227.889V74.3945H233.74V71.7422H237.213V74.3945H243.01ZM235.436 80.7656C233.74 80.7656 232.537 81.5039 232.564 82.7891C232.537 84.1016 233.74 84.8125 235.436 84.8125C237.186 84.8125 238.361 84.1016 238.361 82.7891C238.361 81.5039 237.186 80.7656 235.436 80.7656ZM273.061 71.6328V96.5156H269.725V71.6328H273.061ZM267.865 71.9883V95.3672H264.584V83.6094H262.588C262.26 88.5039 260.182 91.457 257.119 91.457C253.838 91.457 251.705 88.0117 251.705 82.4062C251.705 76.8281 253.838 73.4102 257.119 73.4102C260.113 73.4102 262.164 76.1992 262.561 80.8477H264.584V71.9883H267.865ZM257.119 76.6914C255.725 76.6914 254.904 78.6055 254.932 82.4062C254.904 86.2344 255.725 88.1211 257.119 88.0938C258.541 88.1211 259.389 86.2344 259.389 82.4062C259.389 78.6055 258.541 76.6914 257.119 76.6914ZM278.912 94.2461C277.627 94.2461 276.588 93.207 276.615 91.9492C276.588 90.6914 277.627 89.6797 278.912 89.6797C280.115 89.6797 281.182 90.6914 281.182 91.9492C281.182 93.207 280.115 94.2461 278.912 94.2461ZM286.814 94.2461C285.529 94.2461 284.49 93.207 284.518 91.9492C284.49 90.6914 285.529 89.6797 286.814 89.6797C288.018 89.6797 289.084 90.6914 289.084 91.9492C289.084 93.207 288.018 94.2461 286.814 94.2461Z" fill="#090909"/>
<path d="M56.0078 131.328H54.5859V124.031H52.8516V130.641H51.4453V117.594H52.8516V122.812H54.5859V117.328H56.0078V131.328ZM49.8672 127.641H44.4297V118.906H49.8672V127.641ZM45.8359 126.453H48.4766V120.078H45.8359V126.453ZM61.7578 117.797C62.4557 117.802 63.0807 117.94 63.6328 118.211C64.1901 118.477 64.6276 118.849 64.9453 119.328C65.263 119.802 65.4245 120.339 65.4297 120.938C65.4245 121.542 65.263 122.081 64.9453 122.555C64.6276 123.029 64.1901 123.398 63.6328 123.664C63.0807 123.93 62.4557 124.062 61.7578 124.062C61.0547 124.062 60.4219 123.93 59.8594 123.664C59.3021 123.398 58.8646 123.029 58.5469 122.555C58.2292 122.081 58.0703 121.542 58.0703 120.938C58.0703 120.339 58.2292 119.802 58.5469 119.328C58.8646 118.849 59.3021 118.477 59.8594 118.211C60.4219 117.94 61.0547 117.802 61.7578 117.797ZM61.7578 119.047C61.3307 119.042 60.9453 119.117 60.6016 119.273C60.263 119.43 59.9974 119.654 59.8047 119.945C59.612 120.232 59.5182 120.562 59.5234 120.938C59.5182 121.318 59.6094 121.654 59.7969 121.945C59.9896 122.237 60.2552 122.464 60.5938 122.625C60.9375 122.781 61.3255 122.859 61.7578 122.859C62.1849 122.859 62.5677 122.779 62.9062 122.617C63.2448 122.456 63.5104 122.232 63.7031 121.945C63.8958 121.654 63.9922 121.318 63.9922 120.938C63.9922 120.562 63.8958 120.232 63.7031 119.945C63.5104 119.654 63.2422 119.43 62.8984 119.273C62.5599 119.117 62.1797 119.042 61.7578 119.047ZM69.3984 124.453H67.9141V117.328H69.3984V124.453ZM69.3984 128.625H61.6797V129.969H69.8672V131.156H60.2422V127.516H67.9297V126.281H60.1953V125.094H69.3984V128.625ZM79.8672 118.531C80.6276 118.531 81.3281 118.703 81.9688 119.047C82.6146 119.385 83.1406 119.958 83.5469 120.766C83.9583 121.568 84.1641 122.625 84.1641 123.938C84.1641 125.245 83.9844 126.365 83.625 127.297C83.2708 128.229 82.7604 128.94 82.0938 129.43C81.4323 129.914 80.6484 130.156 79.7422 130.156C79.0599 130.156 78.4453 130.026 77.8984 129.766C77.3568 129.5 76.9141 129.133 76.5703 128.664C76.2318 128.19 76.0182 127.646 75.9297 127.031H77.6328C77.7526 127.526 77.9948 127.922 78.3594 128.219C78.7292 128.51 79.1901 128.656 79.7422 128.656C80.3203 128.656 80.8151 128.495 81.2266 128.172C81.6432 127.844 81.9609 127.372 82.1797 126.758C82.4036 126.138 82.5182 125.401 82.5234 124.547H82.3828C82.0755 125.026 81.6667 125.401 81.1562 125.672C80.651 125.943 80.0964 126.078 79.4922 126.078C78.8203 126.078 78.2057 125.919 77.6484 125.602C77.0911 125.284 76.6484 124.841 76.3203 124.273C75.9974 123.706 75.8359 123.068 75.8359 122.359C75.8359 121.646 76.0026 120.997 76.3359 120.414C76.6745 119.831 77.1484 119.372 77.7578 119.039C78.3724 118.701 79.0755 118.531 79.8672 118.531ZM79.8984 119.969C79.4505 119.969 79.0443 120.076 78.6797 120.289C78.3151 120.497 78.0286 120.784 77.8203 121.148C77.612 121.508 77.5078 121.901 77.5078 122.328C77.5078 122.76 77.6094 123.156 77.8125 123.516C78.0156 123.875 78.2969 124.159 78.6562 124.367C79.0156 124.57 79.4193 124.672 79.8672 124.672C80.3099 124.672 80.7161 124.562 81.0859 124.344C81.4557 124.125 81.7474 123.836 81.9609 123.477C82.1797 123.112 82.2891 122.724 82.2891 122.312C82.2891 121.906 82.1849 121.523 81.9766 121.164C81.7734 120.805 81.487 120.516 81.1172 120.297C80.7526 120.078 80.3464 119.969 79.8984 119.969ZM90.6328 120.891C90.6276 121.734 90.7812 122.565 91.0938 123.383C91.4115 124.195 91.8516 124.919 92.4141 125.555C92.9818 126.19 93.6224 126.667 94.3359 126.984L93.4453 128.156C92.6484 127.776 91.9427 127.216 91.3281 126.477C90.7135 125.732 90.2396 124.878 89.9062 123.914C89.5781 124.951 89.099 125.867 88.4688 126.664C87.8438 127.461 87.1172 128.062 86.2891 128.469L85.3828 127.219C86.1068 126.896 86.7526 126.406 87.3203 125.75C87.8932 125.094 88.3385 124.341 88.6562 123.492C88.974 122.638 89.1328 121.771 89.1328 120.891V118.5H90.6328V120.891ZM97.0859 131.359H95.6016V117.328H97.0859V131.359ZM100.305 124.047C100.56 123.76 100.844 123.544 101.156 123.398C101.474 123.247 101.81 123.172 102.164 123.172C102.44 123.172 102.711 123.211 102.977 123.289C103.247 123.367 103.565 123.479 103.93 123.625C104.305 123.771 104.617 123.88 104.867 123.953C105.122 124.026 105.383 124.062 105.648 124.062C106.383 124.062 106.992 123.75 107.477 123.125V124.625C106.94 125.208 106.32 125.5 105.617 125.5C105.341 125.5 105.068 125.461 104.797 125.383C104.531 125.305 104.216 125.193 103.852 125.047C103.456 124.896 103.133 124.786 102.883 124.719C102.638 124.646 102.383 124.609 102.117 124.609C101.409 124.609 100.805 124.922 100.305 125.547V124.047ZM113.883 128.75L117.805 124.797C118.279 124.297 118.641 123.896 118.891 123.594C119.141 123.292 119.331 122.997 119.461 122.711C119.596 122.419 119.664 122.115 119.664 121.797C119.664 121.432 119.573 121.112 119.391 120.836C119.208 120.56 118.958 120.346 118.641 120.195C118.323 120.044 117.966 119.969 117.57 119.969C117.159 119.969 116.797 120.052 116.484 120.219C116.172 120.385 115.93 120.62 115.758 120.922C115.591 121.224 115.508 121.573 115.508 121.969H113.883C113.878 121.292 114.034 120.693 114.352 120.172C114.669 119.651 115.112 119.247 115.68 118.961C116.247 118.674 116.888 118.531 117.602 118.531C118.32 118.531 118.958 118.672 119.516 118.953C120.078 119.229 120.516 119.612 120.828 120.102C121.141 120.591 121.299 121.141 121.305 121.75C121.299 122.182 121.216 122.599 121.055 123C120.893 123.396 120.617 123.839 120.227 124.328C119.836 124.812 119.284 125.406 118.57 126.109L116.273 128.438V128.531H121.492V130H113.883V128.75ZM127.336 130.156C126.466 130.156 125.719 129.93 125.094 129.477C124.474 129.023 124 128.362 123.672 127.492C123.344 126.617 123.18 125.568 123.18 124.344C123.18 123.13 123.344 122.089 123.672 121.219C124.005 120.344 124.484 119.677 125.109 119.219C125.734 118.76 126.477 118.531 127.336 118.531C128.195 118.531 128.938 118.76 129.562 119.219C130.188 119.677 130.664 120.344 130.992 121.219C131.326 122.089 131.492 123.13 131.492 124.344C131.492 125.568 131.328 126.615 131 127.484C130.672 128.354 130.195 129.018 129.57 129.477C128.945 129.93 128.201 130.156 127.336 130.156ZM127.336 128.672C127.846 128.672 128.284 128.508 128.648 128.18C129.013 127.846 129.292 127.357 129.484 126.711C129.677 126.065 129.773 125.276 129.773 124.344C129.773 123.417 129.674 122.628 129.477 121.977C129.284 121.32 129.005 120.826 128.641 120.492C128.276 120.154 127.841 119.984 127.336 119.984C126.831 119.984 126.396 120.154 126.031 120.492C125.667 120.826 125.385 121.32 125.188 121.977C124.995 122.628 124.898 123.417 124.898 124.344C124.898 125.276 124.995 126.065 125.188 126.711C125.38 127.357 125.659 127.846 126.023 128.18C126.388 128.508 126.826 128.672 127.336 128.672ZM137.93 120.891C137.924 121.734 138.078 122.565 138.391 123.383C138.708 124.195 139.148 124.919 139.711 125.555C140.279 126.19 140.919 126.667 141.633 126.984L140.742 128.156C139.945 127.776 139.24 127.216 138.625 126.477C138.01 125.732 137.536 124.878 137.203 123.914C136.875 124.951 136.396 125.867 135.766 126.664C135.141 127.461 134.414 128.062 133.586 128.469L132.68 127.219C133.404 126.896 134.049 126.406 134.617 125.75C135.19 125.094 135.635 124.341 135.953 123.492C136.271 122.638 136.43 121.771 136.43 120.891V118.5H137.93V120.891ZM144.383 131.359H142.898V117.328H144.383V131.359ZM163.305 125.328H150.523V124.141H156.195V122.656H152.117V117.969H161.727V119.141H153.586V121.469H161.82V122.656H157.633V124.141H163.305V125.328ZM156.898 126.234C157.904 126.234 158.766 126.333 159.484 126.531C160.208 126.729 160.763 127.021 161.148 127.406C161.534 127.786 161.727 128.245 161.727 128.781C161.727 129.318 161.534 129.776 161.148 130.156C160.768 130.536 160.216 130.826 159.492 131.023C158.768 131.221 157.904 131.323 156.898 131.328C155.888 131.323 155.018 131.221 154.289 131.023C153.565 130.826 153.008 130.536 152.617 130.156C152.232 129.776 152.039 129.318 152.039 128.781C152.039 128.245 152.232 127.786 152.617 127.406C153.008 127.021 153.565 126.729 154.289 126.531C155.018 126.333 155.888 126.234 156.898 126.234ZM156.898 127.391C155.826 127.391 154.997 127.513 154.414 127.758C153.831 127.997 153.539 128.339 153.539 128.781C153.539 129.229 153.831 129.573 154.414 129.812C155.003 130.047 155.831 130.161 156.898 130.156C157.956 130.167 158.776 130.052 159.359 129.812C159.948 129.568 160.242 129.224 160.242 128.781C160.242 128.339 159.948 127.997 159.359 127.758C158.776 127.513 157.956 127.391 156.898 127.391ZM175.352 121.5H177.383V122.75H175.352V127.609H173.867V117.312H175.352V121.5ZM175.945 131.031H166.477V126.531H167.961V129.828H175.945V131.031ZM168.289 118.281C168.987 118.281 169.617 118.43 170.18 118.727C170.747 119.023 171.195 119.438 171.523 119.969C171.852 120.495 172.018 121.094 172.023 121.766C172.018 122.432 171.852 123.031 171.523 123.562C171.195 124.089 170.747 124.503 170.18 124.805C169.617 125.102 168.987 125.25 168.289 125.25C167.591 125.25 166.958 125.102 166.391 124.805C165.823 124.503 165.375 124.089 165.047 123.562C164.724 123.031 164.565 122.432 164.57 121.766C164.565 121.094 164.724 120.495 165.047 119.969C165.375 119.438 165.823 119.023 166.391 118.727C166.958 118.43 167.591 118.281 168.289 118.281ZM168.289 119.578C167.862 119.578 167.474 119.672 167.125 119.859C166.781 120.042 166.51 120.299 166.312 120.633C166.115 120.966 166.018 121.344 166.023 121.766C166.018 122.188 166.115 122.565 166.312 122.898C166.51 123.232 166.781 123.492 167.125 123.68C167.474 123.862 167.862 123.953 168.289 123.953C168.716 123.953 169.104 123.862 169.453 123.68C169.802 123.492 170.076 123.232 170.273 122.898C170.471 122.565 170.57 122.188 170.57 121.766C170.57 121.344 170.471 120.966 170.273 120.633C170.076 120.299 169.802 120.042 169.453 119.859C169.104 119.672 168.716 119.578 168.289 119.578ZM193.43 124.969H189.195V128.391H194.898V129.609H182.086V128.391H187.727V124.969H183.68V118.406H193.305V119.609H185.164V123.781H193.43V124.969ZM207.586 127.594H206.102V122.328H203.43V121.125H206.102V117.344H207.586V127.594ZM207.961 131.031H198.492V126.672H199.977V129.828H207.961V131.031ZM200.93 120.172C200.93 120.755 201.065 121.326 201.336 121.883C201.607 122.44 201.997 122.938 202.508 123.375C203.018 123.812 203.617 124.146 204.305 124.375L203.539 125.562C202.768 125.292 202.096 124.891 201.523 124.359C200.951 123.823 200.508 123.203 200.195 122.5C199.888 123.281 199.432 123.966 198.828 124.555C198.224 125.143 197.513 125.583 196.695 125.875L195.93 124.672C196.633 124.432 197.247 124.083 197.773 123.625C198.299 123.161 198.703 122.63 198.984 122.031C199.271 121.432 199.414 120.812 199.414 120.172V119.625H196.383V118.406H203.93V119.625H200.93V120.172ZM220.742 120.562H222.789V121.781H220.742V124.984H219.258V117.281H220.742V120.562ZM220.742 128.891H213.18V130.062H221.227V131.188H211.727V127.844H219.273V126.75H211.695V125.641H220.742V128.891ZM218.102 119.688H209.758V118.516H213.195V117.203H214.68V118.516H218.102V119.688ZM213.93 120.219C214.607 120.219 215.201 120.312 215.711 120.5C216.227 120.682 216.622 120.948 216.898 121.297C217.18 121.641 217.32 122.047 217.32 122.516C217.32 122.984 217.18 123.391 216.898 123.734C216.622 124.078 216.229 124.341 215.719 124.523C215.208 124.706 214.612 124.797 213.93 124.797C213.242 124.797 212.641 124.706 212.125 124.523C211.615 124.341 211.219 124.078 210.938 123.734C210.661 123.391 210.523 122.984 210.523 122.516C210.523 122.047 210.664 121.641 210.945 121.297C211.227 120.948 211.622 120.682 212.133 120.5C212.648 120.312 213.247 120.219 213.93 120.219ZM213.93 121.281C213.534 121.281 213.185 121.333 212.883 121.438C212.586 121.536 212.357 121.68 212.195 121.867C212.034 122.049 211.956 122.266 211.961 122.516C211.956 122.885 212.13 123.18 212.484 123.398C212.844 123.612 213.326 123.719 213.93 123.719C214.534 123.719 215.016 123.612 215.375 123.398C215.74 123.185 215.924 122.891 215.93 122.516C215.924 122.266 215.839 122.049 215.672 121.867C215.505 121.68 215.271 121.536 214.969 121.438C214.672 121.333 214.326 121.281 213.93 121.281ZM234.648 118.562C234.643 119.172 234.865 119.76 235.312 120.328C235.766 120.891 236.378 121.37 237.148 121.766C237.919 122.156 238.758 122.411 239.664 122.531L239.086 123.75C238.326 123.63 237.604 123.422 236.922 123.125C236.24 122.828 235.635 122.461 235.109 122.023C234.583 121.586 234.172 121.096 233.875 120.555C233.573 121.096 233.159 121.586 232.633 122.023C232.112 122.461 231.513 122.828 230.836 123.125C230.159 123.417 229.44 123.625 228.68 123.75L228.086 122.531C228.992 122.411 229.828 122.156 230.594 121.766C231.359 121.375 231.966 120.898 232.414 120.336C232.867 119.768 233.096 119.177 233.102 118.562V117.797H234.648V118.562ZM240.242 126.344H234.555V131.328H233.102V126.344H227.477V125.125H240.242V126.344ZM250.07 126.578C250.07 127.208 250.227 127.815 250.539 128.398C250.857 128.977 251.32 129.448 251.93 129.812C252.341 129.547 252.69 129.232 252.977 128.867C253.268 128.503 253.487 128.122 253.633 127.727C253.779 127.331 253.852 126.948 253.852 126.578V125.906H255.305V126.578C255.305 127.068 255.411 127.542 255.625 128C255.839 128.453 256.154 128.857 256.57 129.211C256.987 129.565 257.492 129.839 258.086 130.031L257.352 131.125C256.674 130.891 256.099 130.552 255.625 130.109C255.156 129.672 254.794 129.159 254.539 128.57C254.305 129.164 253.971 129.695 253.539 130.164C253.112 130.633 252.591 130.995 251.977 131.25C251.331 131.005 250.786 130.654 250.344 130.195C249.906 129.737 249.573 129.208 249.344 128.609C249.083 129.177 248.721 129.68 248.258 130.117C247.794 130.555 247.242 130.891 246.602 131.125L245.852 130.031C246.43 129.823 246.927 129.536 247.344 129.172C247.766 128.807 248.083 128.401 248.297 127.953C248.516 127.5 248.628 127.042 248.633 126.578V125.906H250.07V126.578ZM256.82 125.312H255.336V117.344H256.82V125.312ZM249.227 118.109C249.935 118.109 250.57 118.25 251.133 118.531C251.701 118.812 252.143 119.206 252.461 119.711C252.784 120.211 252.945 120.781 252.945 121.422C252.945 122.057 252.784 122.625 252.461 123.125C252.143 123.62 251.701 124.008 251.133 124.289C250.57 124.565 249.935 124.703 249.227 124.703C248.518 124.703 247.88 124.565 247.312 124.289C246.745 124.008 246.299 123.62 245.977 123.125C245.654 122.625 245.492 122.057 245.492 121.422C245.492 120.781 245.654 120.211 245.977 119.711C246.299 119.206 246.745 118.812 247.312 118.531C247.88 118.25 248.518 118.109 249.227 118.109ZM249.227 119.375C248.789 119.37 248.396 119.453 248.047 119.625C247.703 119.792 247.432 120.031 247.234 120.344C247.042 120.656 246.945 121.016 246.945 121.422C246.945 121.823 247.042 122.18 247.234 122.492C247.432 122.799 247.703 123.039 248.047 123.211C248.396 123.383 248.789 123.469 249.227 123.469C249.659 123.469 250.047 123.383 250.391 123.211C250.734 123.039 251.003 122.799 251.195 122.492C251.393 122.18 251.492 121.823 251.492 121.422C251.492 121.016 251.393 120.656 251.195 120.344C251.003 120.031 250.734 119.792 250.391 119.625C250.047 119.453 249.659 119.37 249.227 119.375ZM262.836 118.375C263.466 118.375 264.034 118.547 264.539 118.891C265.044 119.229 265.453 119.716 265.766 120.352C266.083 120.982 266.279 121.724 266.352 122.578H269.242V117.328H270.711V131.359H269.242V123.781H266.367C266.315 124.677 266.133 125.458 265.82 126.125C265.508 126.792 265.094 127.305 264.578 127.664C264.062 128.023 263.482 128.203 262.836 128.203C262.138 128.203 261.521 128.003 260.984 127.602C260.448 127.195 260.029 126.622 259.727 125.883C259.43 125.138 259.284 124.271 259.289 123.281C259.284 122.297 259.43 121.435 259.727 120.695C260.029 119.951 260.448 119.378 260.984 118.977C261.526 118.576 262.143 118.375 262.836 118.375ZM262.836 119.703C262.414 119.703 262.042 119.849 261.719 120.141C261.396 120.432 261.143 120.849 260.961 121.391C260.784 121.927 260.695 122.557 260.695 123.281C260.695 124.01 260.784 124.646 260.961 125.188C261.143 125.729 261.396 126.146 261.719 126.438C262.042 126.729 262.414 126.875 262.836 126.875C263.258 126.875 263.63 126.729 263.953 126.438C264.276 126.146 264.526 125.729 264.703 125.188C264.885 124.646 264.977 124.01 264.977 123.281C264.977 122.557 264.885 121.927 264.703 121.391C264.526 120.849 264.276 120.432 263.953 120.141C263.63 119.849 263.258 119.703 262.836 119.703ZM285.68 129.578H272.867V128.344H275.93V124.688C275.346 124.365 274.893 123.956 274.57 123.461C274.247 122.966 274.086 122.411 274.086 121.797C274.086 121.073 274.305 120.435 274.742 119.883C275.185 119.331 275.797 118.904 276.578 118.602C277.359 118.294 278.247 118.141 279.242 118.141C280.242 118.141 281.133 118.294 281.914 118.602C282.701 118.904 283.312 119.331 283.75 119.883C284.193 120.435 284.414 121.073 284.414 121.797C284.414 122.406 284.258 122.956 283.945 123.445C283.633 123.93 283.19 124.333 282.617 124.656V128.344H285.68V129.578ZM279.242 119.328C278.513 119.328 277.867 119.43 277.305 119.633C276.742 119.831 276.305 120.117 275.992 120.492C275.68 120.862 275.523 121.297 275.523 121.797C275.523 122.292 275.68 122.727 275.992 123.102C276.305 123.477 276.742 123.768 277.305 123.977C277.867 124.18 278.513 124.281 279.242 124.281C279.966 124.281 280.609 124.18 281.172 123.977C281.74 123.768 282.182 123.477 282.5 123.102C282.818 122.727 282.977 122.292 282.977 121.797C282.977 121.302 282.818 120.867 282.5 120.492C282.188 120.117 281.747 119.831 281.18 119.633C280.617 119.43 279.971 119.328 279.242 119.328ZM281.117 128.344V125.227C280.549 125.367 279.924 125.438 279.242 125.438C278.586 125.438 277.971 125.37 277.398 125.234V128.344H281.117ZM289.133 126.734H287.586L287.445 118.688H289.273L289.133 126.734ZM288.367 130.109C288.169 130.109 287.982 130.06 287.805 129.961C287.633 129.862 287.497 129.727 287.398 129.555C287.299 129.383 287.253 129.198 287.258 129C287.253 128.802 287.299 128.617 287.398 128.445C287.497 128.273 287.633 128.138 287.805 128.039C287.982 127.94 288.169 127.891 288.367 127.891C288.56 127.891 288.742 127.94 288.914 128.039C289.086 128.138 289.221 128.273 289.32 128.445C289.424 128.617 289.477 128.802 289.477 129C289.477 129.198 289.424 129.383 289.32 129.555C289.221 129.727 289.086 129.862 288.914 129.961C288.742 130.06 288.56 130.109 288.367 130.109Z" fill="#F3C9E4"/>
<path d="M56.0078 131.328H54.5859V124.031H52.8516V130.641H51.4453V117.594H52.8516V122.812H54.5859V117.328H56.0078V131.328ZM49.8672 127.641H44.4297V118.906H49.8672V127.641ZM45.8359 126.453H48.4766V120.078H45.8359V126.453ZM61.7578 117.797C62.4557 117.802 63.0807 117.94 63.6328 118.211C64.1901 118.477 64.6276 118.849 64.9453 119.328C65.263 119.802 65.4245 120.339 65.4297 120.938C65.4245 121.542 65.263 122.081 64.9453 122.555C64.6276 123.029 64.1901 123.398 63.6328 123.664C63.0807 123.93 62.4557 124.062 61.7578 124.062C61.0547 124.062 60.4219 123.93 59.8594 123.664C59.3021 123.398 58.8646 123.029 58.5469 122.555C58.2292 122.081 58.0703 121.542 58.0703 120.938C58.0703 120.339 58.2292 119.802 58.5469 119.328C58.8646 118.849 59.3021 118.477 59.8594 118.211C60.4219 117.94 61.0547 117.802 61.7578 117.797ZM61.7578 119.047C61.3307 119.042 60.9453 119.117 60.6016 119.273C60.263 119.43 59.9974 119.654 59.8047 119.945C59.612 120.232 59.5182 120.562 59.5234 120.938C59.5182 121.318 59.6094 121.654 59.7969 121.945C59.9896 122.237 60.2552 122.464 60.5938 122.625C60.9375 122.781 61.3255 122.859 61.7578 122.859C62.1849 122.859 62.5677 122.779 62.9062 122.617C63.2448 122.456 63.5104 122.232 63.7031 121.945C63.8958 121.654 63.9922 121.318 63.9922 120.938C63.9922 120.562 63.8958 120.232 63.7031 119.945C63.5104 119.654 63.2422 119.43 62.8984 119.273C62.5599 119.117 62.1797 119.042 61.7578 119.047ZM69.3984 124.453H67.9141V117.328H69.3984V124.453ZM69.3984 128.625H61.6797V129.969H69.8672V131.156H60.2422V127.516H67.9297V126.281H60.1953V125.094H69.3984V128.625ZM79.8672 118.531C80.6276 118.531 81.3281 118.703 81.9688 119.047C82.6146 119.385 83.1406 119.958 83.5469 120.766C83.9583 121.568 84.1641 122.625 84.1641 123.938C84.1641 125.245 83.9844 126.365 83.625 127.297C83.2708 128.229 82.7604 128.94 82.0938 129.43C81.4323 129.914 80.6484 130.156 79.7422 130.156C79.0599 130.156 78.4453 130.026 77.8984 129.766C77.3568 129.5 76.9141 129.133 76.5703 128.664C76.2318 128.19 76.0182 127.646 75.9297 127.031H77.6328C77.7526 127.526 77.9948 127.922 78.3594 128.219C78.7292 128.51 79.1901 128.656 79.7422 128.656C80.3203 128.656 80.8151 128.495 81.2266 128.172C81.6432 127.844 81.9609 127.372 82.1797 126.758C82.4036 126.138 82.5182 125.401 82.5234 124.547H82.3828C82.0755 125.026 81.6667 125.401 81.1562 125.672C80.651 125.943 80.0964 126.078 79.4922 126.078C78.8203 126.078 78.2057 125.919 77.6484 125.602C77.0911 125.284 76.6484 124.841 76.3203 124.273C75.9974 123.706 75.8359 123.068 75.8359 122.359C75.8359 121.646 76.0026 120.997 76.3359 120.414C76.6745 119.831 77.1484 119.372 77.7578 119.039C78.3724 118.701 79.0755 118.531 79.8672 118.531ZM79.8984 119.969C79.4505 119.969 79.0443 120.076 78.6797 120.289C78.3151 120.497 78.0286 120.784 77.8203 121.148C77.612 121.508 77.5078 121.901 77.5078 122.328C77.5078 122.76 77.6094 123.156 77.8125 123.516C78.0156 123.875 78.2969 124.159 78.6562 124.367C79.0156 124.57 79.4193 124.672 79.8672 124.672C80.3099 124.672 80.7161 124.562 81.0859 124.344C81.4557 124.125 81.7474 123.836 81.9609 123.477C82.1797 123.112 82.2891 122.724 82.2891 122.312C82.2891 121.906 82.1849 121.523 81.9766 121.164C81.7734 120.805 81.487 120.516 81.1172 120.297C80.7526 120.078 80.3464 119.969 79.8984 119.969ZM90.6328 120.891C90.6276 121.734 90.7812 122.565 91.0938 123.383C91.4115 124.195 91.8516 124.919 92.4141 125.555C92.9818 126.19 93.6224 126.667 94.3359 126.984L93.4453 128.156C92.6484 127.776 91.9427 127.216 91.3281 126.477C90.7135 125.732 90.2396 124.878 89.9062 123.914C89.5781 124.951 89.099 125.867 88.4688 126.664C87.8438 127.461 87.1172 128.062 86.2891 128.469L85.3828 127.219C86.1068 126.896 86.7526 126.406 87.3203 125.75C87.8932 125.094 88.3385 124.341 88.6562 123.492C88.974 122.638 89.1328 121.771 89.1328 120.891V118.5H90.6328V120.891ZM97.0859 131.359H95.6016V117.328H97.0859V131.359ZM100.305 124.047C100.56 123.76 100.844 123.544 101.156 123.398C101.474 123.247 101.81 123.172 102.164 123.172C102.44 123.172 102.711 123.211 102.977 123.289C103.247 123.367 103.565 123.479 103.93 123.625C104.305 123.771 104.617 123.88 104.867 123.953C105.122 124.026 105.383 124.062 105.648 124.062C106.383 124.062 106.992 123.75 107.477 123.125V124.625C106.94 125.208 106.32 125.5 105.617 125.5C105.341 125.5 105.068 125.461 104.797 125.383C104.531 125.305 104.216 125.193 103.852 125.047C103.456 124.896 103.133 124.786 102.883 124.719C102.638 124.646 102.383 124.609 102.117 124.609C101.409 124.609 100.805 124.922 100.305 125.547V124.047ZM113.883 128.75L117.805 124.797C118.279 124.297 118.641 123.896 118.891 123.594C119.141 123.292 119.331 122.997 119.461 122.711C119.596 122.419 119.664 122.115 119.664 121.797C119.664 121.432 119.573 121.112 119.391 120.836C119.208 120.56 118.958 120.346 118.641 120.195C118.323 120.044 117.966 119.969 117.57 119.969C117.159 119.969 116.797 120.052 116.484 120.219C116.172 120.385 115.93 120.62 115.758 120.922C115.591 121.224 115.508 121.573 115.508 121.969H113.883C113.878 121.292 114.034 120.693 114.352 120.172C114.669 119.651 115.112 119.247 115.68 118.961C116.247 118.674 116.888 118.531 117.602 118.531C118.32 118.531 118.958 118.672 119.516 118.953C120.078 119.229 120.516 119.612 120.828 120.102C121.141 120.591 121.299 121.141 121.305 121.75C121.299 122.182 121.216 122.599 121.055 123C120.893 123.396 120.617 123.839 120.227 124.328C119.836 124.812 119.284 125.406 118.57 126.109L116.273 128.438V128.531H121.492V130H113.883V128.75ZM127.336 130.156C126.466 130.156 125.719 129.93 125.094 129.477C124.474 129.023 124 128.362 123.672 127.492C123.344 126.617 123.18 125.568 123.18 124.344C123.18 123.13 123.344 122.089 123.672 121.219C124.005 120.344 124.484 119.677 125.109 119.219C125.734 118.76 126.477 118.531 127.336 118.531C128.195 118.531 128.938 118.76 129.562 119.219C130.188 119.677 130.664 120.344 130.992 121.219C131.326 122.089 131.492 123.13 131.492 124.344C131.492 125.568 131.328 126.615 131 127.484C130.672 128.354 130.195 129.018 129.57 129.477C128.945 129.93 128.201 130.156 127.336 130.156ZM127.336 128.672C127.846 128.672 128.284 128.508 128.648 128.18C129.013 127.846 129.292 127.357 129.484 126.711C129.677 126.065 129.773 125.276 129.773 124.344C129.773 123.417 129.674 122.628 129.477 121.977C129.284 121.32 129.005 120.826 128.641 120.492C128.276 120.154 127.841 119.984 127.336 119.984C126.831 119.984 126.396 120.154 126.031 120.492C125.667 120.826 125.385 121.32 125.188 121.977C124.995 122.628 124.898 123.417 124.898 124.344C124.898 125.276 124.995 126.065 125.188 126.711C125.38 127.357 125.659 127.846 126.023 128.18C126.388 128.508 126.826 128.672 127.336 128.672ZM137.93 120.891C137.924 121.734 138.078 122.565 138.391 123.383C138.708 124.195 139.148 124.919 139.711 125.555C140.279 126.19 140.919 126.667 141.633 126.984L140.742 128.156C139.945 127.776 139.24 127.216 138.625 126.477C138.01 125.732 137.536 124.878 137.203 123.914C136.875 124.951 136.396 125.867 135.766 126.664C135.141 127.461 134.414 128.062 133.586 128.469L132.68 127.219C133.404 126.896 134.049 126.406 134.617 125.75C135.19 125.094 135.635 124.341 135.953 123.492C136.271 122.638 136.43 121.771 136.43 120.891V118.5H137.93V120.891ZM144.383 131.359H142.898V117.328H144.383V131.359ZM163.305 125.328H150.523V124.141H156.195V122.656H152.117V117.969H161.727V119.141H153.586V121.469H161.82V122.656H157.633V124.141H163.305V125.328ZM156.898 126.234C157.904 126.234 158.766 126.333 159.484 126.531C160.208 126.729 160.763 127.021 161.148 127.406C161.534 127.786 161.727 128.245 161.727 128.781C161.727 129.318 161.534 129.776 161.148 130.156C160.768 130.536 160.216 130.826 159.492 131.023C158.768 131.221 157.904 131.323 156.898 131.328C155.888 131.323 155.018 131.221 154.289 131.023C153.565 130.826 153.008 130.536 152.617 130.156C152.232 129.776 152.039 129.318 152.039 128.781C152.039 128.245 152.232 127.786 152.617 127.406C153.008 127.021 153.565 126.729 154.289 126.531C155.018 126.333 155.888 126.234 156.898 126.234ZM156.898 127.391C155.826 127.391 154.997 127.513 154.414 127.758C153.831 127.997 153.539 128.339 153.539 128.781C153.539 129.229 153.831 129.573 154.414 129.812C155.003 130.047 155.831 130.161 156.898 130.156C157.956 130.167 158.776 130.052 159.359 129.812C159.948 129.568 160.242 129.224 160.242 128.781C160.242 128.339 159.948 127.997 159.359 127.758C158.776 127.513 157.956 127.391 156.898 127.391ZM175.352 121.5H177.383V122.75H175.352V127.609H173.867V117.312H175.352V121.5ZM175.945 131.031H166.477V126.531H167.961V129.828H175.945V131.031ZM168.289 118.281C168.987 118.281 169.617 118.43 170.18 118.727C170.747 119.023 171.195 119.438 171.523 119.969C171.852 120.495 172.018 121.094 172.023 121.766C172.018 122.432 171.852 123.031 171.523 123.562C171.195 124.089 170.747 124.503 170.18 124.805C169.617 125.102 168.987 125.25 168.289 125.25C167.591 125.25 166.958 125.102 166.391 124.805C165.823 124.503 165.375 124.089 165.047 123.562C164.724 123.031 164.565 122.432 164.57 121.766C164.565 121.094 164.724 120.495 165.047 119.969C165.375 119.438 165.823 119.023 166.391 118.727C166.958 118.43 167.591 118.281 168.289 118.281ZM168.289 119.578C167.862 119.578 167.474 119.672 167.125 119.859C166.781 120.042 166.51 120.299 166.312 120.633C166.115 120.966 166.018 121.344 166.023 121.766C166.018 122.188 166.115 122.565 166.312 122.898C166.51 123.232 166.781 123.492 167.125 123.68C167.474 123.862 167.862 123.953 168.289 123.953C168.716 123.953 169.104 123.862 169.453 123.68C169.802 123.492 170.076 123.232 170.273 122.898C170.471 122.565 170.57 122.188 170.57 121.766C170.57 121.344 170.471 120.966 170.273 120.633C170.076 120.299 169.802 120.042 169.453 119.859C169.104 119.672 168.716 119.578 168.289 119.578ZM193.43 124.969H189.195V128.391H194.898V129.609H182.086V128.391H187.727V124.969H183.68V118.406H193.305V119.609H185.164V123.781H193.43V124.969ZM207.586 127.594H206.102V122.328H203.43V121.125H206.102V117.344H207.586V127.594ZM207.961 131.031H198.492V126.672H199.977V129.828H207.961V131.031ZM200.93 120.172C200.93 120.755 201.065 121.326 201.336 121.883C201.607 122.44 201.997 122.938 202.508 123.375C203.018 123.812 203.617 124.146 204.305 124.375L203.539 125.562C202.768 125.292 202.096 124.891 201.523 124.359C200.951 123.823 200.508 123.203 200.195 122.5C199.888 123.281 199.432 123.966 198.828 124.555C198.224 125.143 197.513 125.583 196.695 125.875L195.93 124.672C196.633 124.432 197.247 124.083 197.773 123.625C198.299 123.161 198.703 122.63 198.984 122.031C199.271 121.432 199.414 120.812 199.414 120.172V119.625H196.383V118.406H203.93V119.625H200.93V120.172ZM220.742 120.562H222.789V121.781H220.742V124.984H219.258V117.281H220.742V120.562ZM220.742 128.891H213.18V130.062H221.227V131.188H211.727V127.844H219.273V126.75H211.695V125.641H220.742V128.891ZM218.102 119.688H209.758V118.516H213.195V117.203H214.68V118.516H218.102V119.688ZM213.93 120.219C214.607 120.219 215.201 120.312 215.711 120.5C216.227 120.682 216.622 120.948 216.898 121.297C217.18 121.641 217.32 122.047 217.32 122.516C217.32 122.984 217.18 123.391 216.898 123.734C216.622 124.078 216.229 124.341 215.719 124.523C215.208 124.706 214.612 124.797 213.93 124.797C213.242 124.797 212.641 124.706 212.125 124.523C211.615 124.341 211.219 124.078 210.938 123.734C210.661 123.391 210.523 122.984 210.523 122.516C210.523 122.047 210.664 121.641 210.945 121.297C211.227 120.948 211.622 120.682 212.133 120.5C212.648 120.312 213.247 120.219 213.93 120.219ZM213.93 121.281C213.534 121.281 213.185 121.333 212.883 121.438C212.586 121.536 212.357 121.68 212.195 121.867C212.034 122.049 211.956 122.266 211.961 122.516C211.956 122.885 212.13 123.18 212.484 123.398C212.844 123.612 213.326 123.719 213.93 123.719C214.534 123.719 215.016 123.612 215.375 123.398C215.74 123.185 215.924 122.891 215.93 122.516C215.924 122.266 215.839 122.049 215.672 121.867C215.505 121.68 215.271 121.536 214.969 121.438C214.672 121.333 214.326 121.281 213.93 121.281ZM234.648 118.562C234.643 119.172 234.865 119.76 235.312 120.328C235.766 120.891 236.378 121.37 237.148 121.766C237.919 122.156 238.758 122.411 239.664 122.531L239.086 123.75C238.326 123.63 237.604 123.422 236.922 123.125C236.24 122.828 235.635 122.461 235.109 122.023C234.583 121.586 234.172 121.096 233.875 120.555C233.573 121.096 233.159 121.586 232.633 122.023C232.112 122.461 231.513 122.828 230.836 123.125C230.159 123.417 229.44 123.625 228.68 123.75L228.086 122.531C228.992 122.411 229.828 122.156 230.594 121.766C231.359 121.375 231.966 120.898 232.414 120.336C232.867 119.768 233.096 119.177 233.102 118.562V117.797H234.648V118.562ZM240.242 126.344H234.555V131.328H233.102V126.344H227.477V125.125H240.242V126.344ZM250.07 126.578C250.07 127.208 250.227 127.815 250.539 128.398C250.857 128.977 251.32 129.448 251.93 129.812C252.341 129.547 252.69 129.232 252.977 128.867C253.268 128.503 253.487 128.122 253.633 127.727C253.779 127.331 253.852 126.948 253.852 126.578V125.906H255.305V126.578C255.305 127.068 255.411 127.542 255.625 128C255.839 128.453 256.154 128.857 256.57 129.211C256.987 129.565 257.492 129.839 258.086 130.031L257.352 131.125C256.674 130.891 256.099 130.552 255.625 130.109C255.156 129.672 254.794 129.159 254.539 128.57C254.305 129.164 253.971 129.695 253.539 130.164C253.112 130.633 252.591 130.995 251.977 131.25C251.331 131.005 250.786 130.654 250.344 130.195C249.906 129.737 249.573 129.208 249.344 128.609C249.083 129.177 248.721 129.68 248.258 130.117C247.794 130.555 247.242 130.891 246.602 131.125L245.852 130.031C246.43 129.823 246.927 129.536 247.344 129.172C247.766 128.807 248.083 128.401 248.297 127.953C248.516 127.5 248.628 127.042 248.633 126.578V125.906H250.07V126.578ZM256.82 125.312H255.336V117.344H256.82V125.312ZM249.227 118.109C249.935 118.109 250.57 118.25 251.133 118.531C251.701 118.812 252.143 119.206 252.461 119.711C252.784 120.211 252.945 120.781 252.945 121.422C252.945 122.057 252.784 122.625 252.461 123.125C252.143 123.62 251.701 124.008 251.133 124.289C250.57 124.565 249.935 124.703 249.227 124.703C248.518 124.703 247.88 124.565 247.312 124.289C246.745 124.008 246.299 123.62 245.977 123.125C245.654 122.625 245.492 122.057 245.492 121.422C245.492 120.781 245.654 120.211 245.977 119.711C246.299 119.206 246.745 118.812 247.312 118.531C247.88 118.25 248.518 118.109 249.227 118.109ZM249.227 119.375C248.789 119.37 248.396 119.453 248.047 119.625C247.703 119.792 247.432 120.031 247.234 120.344C247.042 120.656 246.945 121.016 246.945 121.422C246.945 121.823 247.042 122.18 247.234 122.492C247.432 122.799 247.703 123.039 248.047 123.211C248.396 123.383 248.789 123.469 249.227 123.469C249.659 123.469 250.047 123.383 250.391 123.211C250.734 123.039 251.003 122.799 251.195 122.492C251.393 122.18 251.492 121.823 251.492 121.422C251.492 121.016 251.393 120.656 251.195 120.344C251.003 120.031 250.734 119.792 250.391 119.625C250.047 119.453 249.659 119.37 249.227 119.375ZM262.836 118.375C263.466 118.375 264.034 118.547 264.539 118.891C265.044 119.229 265.453 119.716 265.766 120.352C266.083 120.982 266.279 121.724 266.352 122.578H269.242V117.328H270.711V131.359H269.242V123.781H266.367C266.315 124.677 266.133 125.458 265.82 126.125C265.508 126.792 265.094 127.305 264.578 127.664C264.062 128.023 263.482 128.203 262.836 128.203C262.138 128.203 261.521 128.003 260.984 127.602C260.448 127.195 260.029 126.622 259.727 125.883C259.43 125.138 259.284 124.271 259.289 123.281C259.284 122.297 259.43 121.435 259.727 120.695C260.029 119.951 260.448 119.378 260.984 118.977C261.526 118.576 262.143 118.375 262.836 118.375ZM262.836 119.703C262.414 119.703 262.042 119.849 261.719 120.141C261.396 120.432 261.143 120.849 260.961 121.391C260.784 121.927 260.695 122.557 260.695 123.281C260.695 124.01 260.784 124.646 260.961 125.188C261.143 125.729 261.396 126.146 261.719 126.438C262.042 126.729 262.414 126.875 262.836 126.875C263.258 126.875 263.63 126.729 263.953 126.438C264.276 126.146 264.526 125.729 264.703 125.188C264.885 124.646 264.977 124.01 264.977 123.281C264.977 122.557 264.885 121.927 264.703 121.391C264.526 120.849 264.276 120.432 263.953 120.141C263.63 119.849 263.258 119.703 262.836 119.703ZM285.68 129.578H272.867V128.344H275.93V124.688C275.346 124.365 274.893 123.956 274.57 123.461C274.247 122.966 274.086 122.411 274.086 121.797C274.086 121.073 274.305 120.435 274.742 119.883C275.185 119.331 275.797 118.904 276.578 118.602C277.359 118.294 278.247 118.141 279.242 118.141C280.242 118.141 281.133 118.294 281.914 118.602C282.701 118.904 283.312 119.331 283.75 119.883C284.193 120.435 284.414 121.073 284.414 121.797C284.414 122.406 284.258 122.956 283.945 123.445C283.633 123.93 283.19 124.333 282.617 124.656V128.344H285.68V129.578ZM279.242 119.328C278.513 119.328 277.867 119.43 277.305 119.633C276.742 119.831 276.305 120.117 275.992 120.492C275.68 120.862 275.523 121.297 275.523 121.797C275.523 122.292 275.68 122.727 275.992 123.102C276.305 123.477 276.742 123.768 277.305 123.977C277.867 124.18 278.513 124.281 279.242 124.281C279.966 124.281 280.609 124.18 281.172 123.977C281.74 123.768 282.182 123.477 282.5 123.102C282.818 122.727 282.977 122.292 282.977 121.797C282.977 121.302 282.818 120.867 282.5 120.492C282.188 120.117 281.747 119.831 281.18 119.633C280.617 119.43 279.971 119.328 279.242 119.328ZM281.117 128.344V125.227C280.549 125.367 279.924 125.438 279.242 125.438C278.586 125.438 277.971 125.37 277.398 125.234V128.344H281.117ZM289.133 126.734H287.586L287.445 118.688H289.273L289.133 126.734ZM288.367 130.109C288.169 130.109 287.982 130.06 287.805 129.961C287.633 129.862 287.497 129.727 287.398 129.555C287.299 129.383 287.253 129.198 287.258 129C287.253 128.802 287.299 128.617 287.398 128.445C287.497 128.273 287.633 128.138 287.805 128.039C287.982 127.94 288.169 127.891 288.367 127.891C288.56 127.891 288.742 127.94 288.914 128.039C289.086 128.138 289.221 128.273 289.32 128.445C289.424 128.617 289.477 128.802 289.477 129C289.477 129.198 289.424 129.383 289.32 129.555C289.221 129.727 289.086 129.862 288.914 129.961C288.742 130.06 288.56 130.109 288.367 130.109Z" fill="#090909" fill-opacity="0.2"/>
<path d="M56.0078 131.328H54.5859V124.031H52.8516V130.641H51.4453V117.594H52.8516V122.812H54.5859V117.328H56.0078V131.328ZM49.8672 127.641H44.4297V118.906H49.8672V127.641ZM45.8359 126.453H48.4766V120.078H45.8359V126.453ZM61.7578 117.797C62.4557 117.802 63.0807 117.94 63.6328 118.211C64.1901 118.477 64.6276 118.849 64.9453 119.328C65.263 119.802 65.4245 120.339 65.4297 120.938C65.4245 121.542 65.263 122.081 64.9453 122.555C64.6276 123.029 64.1901 123.398 63.6328 123.664C63.0807 123.93 62.4557 124.062 61.7578 124.062C61.0547 124.062 60.4219 123.93 59.8594 123.664C59.3021 123.398 58.8646 123.029 58.5469 122.555C58.2292 122.081 58.0703 121.542 58.0703 120.938C58.0703 120.339 58.2292 119.802 58.5469 119.328C58.8646 118.849 59.3021 118.477 59.8594 118.211C60.4219 117.94 61.0547 117.802 61.7578 117.797ZM61.7578 119.047C61.3307 119.042 60.9453 119.117 60.6016 119.273C60.263 119.43 59.9974 119.654 59.8047 119.945C59.612 120.232 59.5182 120.562 59.5234 120.938C59.5182 121.318 59.6094 121.654 59.7969 121.945C59.9896 122.237 60.2552 122.464 60.5938 122.625C60.9375 122.781 61.3255 122.859 61.7578 122.859C62.1849 122.859 62.5677 122.779 62.9062 122.617C63.2448 122.456 63.5104 122.232 63.7031 121.945C63.8958 121.654 63.9922 121.318 63.9922 120.938C63.9922 120.562 63.8958 120.232 63.7031 119.945C63.5104 119.654 63.2422 119.43 62.8984 119.273C62.5599 119.117 62.1797 119.042 61.7578 119.047ZM69.3984 124.453H67.9141V117.328H69.3984V124.453ZM69.3984 128.625H61.6797V129.969H69.8672V131.156H60.2422V127.516H67.9297V126.281H60.1953V125.094H69.3984V128.625ZM79.8672 118.531C80.6276 118.531 81.3281 118.703 81.9688 119.047C82.6146 119.385 83.1406 119.958 83.5469 120.766C83.9583 121.568 84.1641 122.625 84.1641 123.938C84.1641 125.245 83.9844 126.365 83.625 127.297C83.2708 128.229 82.7604 128.94 82.0938 129.43C81.4323 129.914 80.6484 130.156 79.7422 130.156C79.0599 130.156 78.4453 130.026 77.8984 129.766C77.3568 129.5 76.9141 129.133 76.5703 128.664C76.2318 128.19 76.0182 127.646 75.9297 127.031H77.6328C77.7526 127.526 77.9948 127.922 78.3594 128.219C78.7292 128.51 79.1901 128.656 79.7422 128.656C80.3203 128.656 80.8151 128.495 81.2266 128.172C81.6432 127.844 81.9609 127.372 82.1797 126.758C82.4036 126.138 82.5182 125.401 82.5234 124.547H82.3828C82.0755 125.026 81.6667 125.401 81.1562 125.672C80.651 125.943 80.0964 126.078 79.4922 126.078C78.8203 126.078 78.2057 125.919 77.6484 125.602C77.0911 125.284 76.6484 124.841 76.3203 124.273C75.9974 123.706 75.8359 123.068 75.8359 122.359C75.8359 121.646 76.0026 120.997 76.3359 120.414C76.6745 119.831 77.1484 119.372 77.7578 119.039C78.3724 118.701 79.0755 118.531 79.8672 118.531ZM79.8984 119.969C79.4505 119.969 79.0443 120.076 78.6797 120.289C78.3151 120.497 78.0286 120.784 77.8203 121.148C77.612 121.508 77.5078 121.901 77.5078 122.328C77.5078 122.76 77.6094 123.156 77.8125 123.516C78.0156 123.875 78.2969 124.159 78.6562 124.367C79.0156 124.57 79.4193 124.672 79.8672 124.672C80.3099 124.672 80.7161 124.562 81.0859 124.344C81.4557 124.125 81.7474 123.836 81.9609 123.477C82.1797 123.112 82.2891 122.724 82.2891 122.312C82.2891 121.906 82.1849 121.523 81.9766 121.164C81.7734 120.805 81.487 120.516 81.1172 120.297C80.7526 120.078 80.3464 119.969 79.8984 119.969ZM90.6328 120.891C90.6276 121.734 90.7812 122.565 91.0938 123.383C91.4115 124.195 91.8516 124.919 92.4141 125.555C92.9818 126.19 93.6224 126.667 94.3359 126.984L93.4453 128.156C92.6484 127.776 91.9427 127.216 91.3281 126.477C90.7135 125.732 90.2396 124.878 89.9062 123.914C89.5781 124.951 89.099 125.867 88.4688 126.664C87.8438 127.461 87.1172 128.062 86.2891 128.469L85.3828 127.219C86.1068 126.896 86.7526 126.406 87.3203 125.75C87.8932 125.094 88.3385 124.341 88.6562 123.492C88.974 122.638 89.1328 121.771 89.1328 120.891V118.5H90.6328V120.891ZM97.0859 131.359H95.6016V117.328H97.0859V131.359ZM100.305 124.047C100.56 123.76 100.844 123.544 101.156 123.398C101.474 123.247 101.81 123.172 102.164 123.172C102.44 123.172 102.711 123.211 102.977 123.289C103.247 123.367 103.565 123.479 103.93 123.625C104.305 123.771 104.617 123.88 104.867 123.953C105.122 124.026 105.383 124.062 105.648 124.062C106.383 124.062 106.992 123.75 107.477 123.125V124.625C106.94 125.208 106.32 125.5 105.617 125.5C105.341 125.5 105.068 125.461 104.797 125.383C104.531 125.305 104.216 125.193 103.852 125.047C103.456 124.896 103.133 124.786 102.883 124.719C102.638 124.646 102.383 124.609 102.117 124.609C101.409 124.609 100.805 124.922 100.305 125.547V124.047ZM113.883 128.75L117.805 124.797C118.279 124.297 118.641 123.896 118.891 123.594C119.141 123.292 119.331 122.997 119.461 122.711C119.596 122.419 119.664 122.115 119.664 121.797C119.664 121.432 119.573 121.112 119.391 120.836C119.208 120.56 118.958 120.346 118.641 120.195C118.323 120.044 117.966 119.969 117.57 119.969C117.159 119.969 116.797 120.052 116.484 120.219C116.172 120.385 115.93 120.62 115.758 120.922C115.591 121.224 115.508 121.573 115.508 121.969H113.883C113.878 121.292 114.034 120.693 114.352 120.172C114.669 119.651 115.112 119.247 115.68 118.961C116.247 118.674 116.888 118.531 117.602 118.531C118.32 118.531 118.958 118.672 119.516 118.953C120.078 119.229 120.516 119.612 120.828 120.102C121.141 120.591 121.299 121.141 121.305 121.75C121.299 122.182 121.216 122.599 121.055 123C120.893 123.396 120.617 123.839 120.227 124.328C119.836 124.812 119.284 125.406 118.57 126.109L116.273 128.438V128.531H121.492V130H113.883V128.75ZM127.336 130.156C126.466 130.156 125.719 129.93 125.094 129.477C124.474 129.023 124 128.362 123.672 127.492C123.344 126.617 123.18 125.568 123.18 124.344C123.18 123.13 123.344 122.089 123.672 121.219C124.005 120.344 124.484 119.677 125.109 119.219C125.734 118.76 126.477 118.531 127.336 118.531C128.195 118.531 128.938 118.76 129.562 119.219C130.188 119.677 130.664 120.344 130.992 121.219C131.326 122.089 131.492 123.13 131.492 124.344C131.492 125.568 131.328 126.615 131 127.484C130.672 128.354 130.195 129.018 129.57 129.477C128.945 129.93 128.201 130.156 127.336 130.156ZM127.336 128.672C127.846 128.672 128.284 128.508 128.648 128.18C129.013 127.846 129.292 127.357 129.484 126.711C129.677 126.065 129.773 125.276 129.773 124.344C129.773 123.417 129.674 122.628 129.477 121.977C129.284 121.32 129.005 120.826 128.641 120.492C128.276 120.154 127.841 119.984 127.336 119.984C126.831 119.984 126.396 120.154 126.031 120.492C125.667 120.826 125.385 121.32 125.188 121.977C124.995 122.628 124.898 123.417 124.898 124.344C124.898 125.276 124.995 126.065 125.188 126.711C125.38 127.357 125.659 127.846 126.023 128.18C126.388 128.508 126.826 128.672 127.336 128.672ZM137.93 120.891C137.924 121.734 138.078 122.565 138.391 123.383C138.708 124.195 139.148 124.919 139.711 125.555C140.279 126.19 140.919 126.667 141.633 126.984L140.742 128.156C139.945 127.776 139.24 127.216 138.625 126.477C138.01 125.732 137.536 124.878 137.203 123.914C136.875 124.951 136.396 125.867 135.766 126.664C135.141 127.461 134.414 128.062 133.586 128.469L132.68 127.219C133.404 126.896 134.049 126.406 134.617 125.75C135.19 125.094 135.635 124.341 135.953 123.492C136.271 122.638 136.43 121.771 136.43 120.891V118.5H137.93V120.891ZM144.383 131.359H142.898V117.328H144.383V131.359ZM163.305 125.328H150.523V124.141H156.195V122.656H152.117V117.969H161.727V119.141H153.586V121.469H161.82V122.656H157.633V124.141H163.305V125.328ZM156.898 126.234C157.904 126.234 158.766 126.333 159.484 126.531C160.208 126.729 160.763 127.021 161.148 127.406C161.534 127.786 161.727 128.245 161.727 128.781C161.727 129.318 161.534 129.776 161.148 130.156C160.768 130.536 160.216 130.826 159.492 131.023C158.768 131.221 157.904 131.323 156.898 131.328C155.888 131.323 155.018 131.221 154.289 131.023C153.565 130.826 153.008 130.536 152.617 130.156C152.232 129.776 152.039 129.318 152.039 128.781C152.039 128.245 152.232 127.786 152.617 127.406C153.008 127.021 153.565 126.729 154.289 126.531C155.018 126.333 155.888 126.234 156.898 126.234ZM156.898 127.391C155.826 127.391 154.997 127.513 154.414 127.758C153.831 127.997 153.539 128.339 153.539 128.781C153.539 129.229 153.831 129.573 154.414 129.812C155.003 130.047 155.831 130.161 156.898 130.156C157.956 130.167 158.776 130.052 159.359 129.812C159.948 129.568 160.242 129.224 160.242 128.781C160.242 128.339 159.948 127.997 159.359 127.758C158.776 127.513 157.956 127.391 156.898 127.391ZM175.352 121.5H177.383V122.75H175.352V127.609H173.867V117.312H175.352V121.5ZM175.945 131.031H166.477V126.531H167.961V129.828H175.945V131.031ZM168.289 118.281C168.987 118.281 169.617 118.43 170.18 118.727C170.747 119.023 171.195 119.438 171.523 119.969C171.852 120.495 172.018 121.094 172.023 121.766C172.018 122.432 171.852 123.031 171.523 123.562C171.195 124.089 170.747 124.503 170.18 124.805C169.617 125.102 168.987 125.25 168.289 125.25C167.591 125.25 166.958 125.102 166.391 124.805C165.823 124.503 165.375 124.089 165.047 123.562C164.724 123.031 164.565 122.432 164.57 121.766C164.565 121.094 164.724 120.495 165.047 119.969C165.375 119.438 165.823 119.023 166.391 118.727C166.958 118.43 167.591 118.281 168.289 118.281ZM168.289 119.578C167.862 119.578 167.474 119.672 167.125 119.859C166.781 120.042 166.51 120.299 166.312 120.633C166.115 120.966 166.018 121.344 166.023 121.766C166.018 122.188 166.115 122.565 166.312 122.898C166.51 123.232 166.781 123.492 167.125 123.68C167.474 123.862 167.862 123.953 168.289 123.953C168.716 123.953 169.104 123.862 169.453 123.68C169.802 123.492 170.076 123.232 170.273 122.898C170.471 122.565 170.57 122.188 170.57 121.766C170.57 121.344 170.471 120.966 170.273 120.633C170.076 120.299 169.802 120.042 169.453 119.859C169.104 119.672 168.716 119.578 168.289 119.578ZM193.43 124.969H189.195V128.391H194.898V129.609H182.086V128.391H187.727V124.969H183.68V118.406H193.305V119.609H185.164V123.781H193.43V124.969ZM207.586 127.594H206.102V122.328H203.43V121.125H206.102V117.344H207.586V127.594ZM207.961 131.031H198.492V126.672H199.977V129.828H207.961V131.031ZM200.93 120.172C200.93 120.755 201.065 121.326 201.336 121.883C201.607 122.44 201.997 122.938 202.508 123.375C203.018 123.812 203.617 124.146 204.305 124.375L203.539 125.562C202.768 125.292 202.096 124.891 201.523 124.359C200.951 123.823 200.508 123.203 200.195 122.5C199.888 123.281 199.432 123.966 198.828 124.555C198.224 125.143 197.513 125.583 196.695 125.875L195.93 124.672C196.633 124.432 197.247 124.083 197.773 123.625C198.299 123.161 198.703 122.63 198.984 122.031C199.271 121.432 199.414 120.812 199.414 120.172V119.625H196.383V118.406H203.93V119.625H200.93V120.172ZM220.742 120.562H222.789V121.781H220.742V124.984H219.258V117.281H220.742V120.562ZM220.742 128.891H213.18V130.062H221.227V131.188H211.727V127.844H219.273V126.75H211.695V125.641H220.742V128.891ZM218.102 119.688H209.758V118.516H213.195V117.203H214.68V118.516H218.102V119.688ZM213.93 120.219C214.607 120.219 215.201 120.312 215.711 120.5C216.227 120.682 216.622 120.948 216.898 121.297C217.18 121.641 217.32 122.047 217.32 122.516C217.32 122.984 217.18 123.391 216.898 123.734C216.622 124.078 216.229 124.341 215.719 124.523C215.208 124.706 214.612 124.797 213.93 124.797C213.242 124.797 212.641 124.706 212.125 124.523C211.615 124.341 211.219 124.078 210.938 123.734C210.661 123.391 210.523 122.984 210.523 122.516C210.523 122.047 210.664 121.641 210.945 121.297C211.227 120.948 211.622 120.682 212.133 120.5C212.648 120.312 213.247 120.219 213.93 120.219ZM213.93 121.281C213.534 121.281 213.185 121.333 212.883 121.438C212.586 121.536 212.357 121.68 212.195 121.867C212.034 122.049 211.956 122.266 211.961 122.516C211.956 122.885 212.13 123.18 212.484 123.398C212.844 123.612 213.326 123.719 213.93 123.719C214.534 123.719 215.016 123.612 215.375 123.398C215.74 123.185 215.924 122.891 215.93 122.516C215.924 122.266 215.839 122.049 215.672 121.867C215.505 121.68 215.271 121.536 214.969 121.438C214.672 121.333 214.326 121.281 213.93 121.281ZM234.648 118.562C234.643 119.172 234.865 119.76 235.312 120.328C235.766 120.891 236.378 121.37 237.148 121.766C237.919 122.156 238.758 122.411 239.664 122.531L239.086 123.75C238.326 123.63 237.604 123.422 236.922 123.125C236.24 122.828 235.635 122.461 235.109 122.023C234.583 121.586 234.172 121.096 233.875 120.555C233.573 121.096 233.159 121.586 232.633 122.023C232.112 122.461 231.513 122.828 230.836 123.125C230.159 123.417 229.44 123.625 228.68 123.75L228.086 122.531C228.992 122.411 229.828 122.156 230.594 121.766C231.359 121.375 231.966 120.898 232.414 120.336C232.867 119.768 233.096 119.177 233.102 118.562V117.797H234.648V118.562ZM240.242 126.344H234.555V131.328H233.102V126.344H227.477V125.125H240.242V126.344ZM250.07 126.578C250.07 127.208 250.227 127.815 250.539 128.398C250.857 128.977 251.32 129.448 251.93 129.812C252.341 129.547 252.69 129.232 252.977 128.867C253.268 128.503 253.487 128.122 253.633 127.727C253.779 127.331 253.852 126.948 253.852 126.578V125.906H255.305V126.578C255.305 127.068 255.411 127.542 255.625 128C255.839 128.453 256.154 128.857 256.57 129.211C256.987 129.565 257.492 129.839 258.086 130.031L257.352 131.125C256.674 130.891 256.099 130.552 255.625 130.109C255.156 129.672 254.794 129.159 254.539 128.57C254.305 129.164 253.971 129.695 253.539 130.164C253.112 130.633 252.591 130.995 251.977 131.25C251.331 131.005 250.786 130.654 250.344 130.195C249.906 129.737 249.573 129.208 249.344 128.609C249.083 129.177 248.721 129.68 248.258 130.117C247.794 130.555 247.242 130.891 246.602 131.125L245.852 130.031C246.43 129.823 246.927 129.536 247.344 129.172C247.766 128.807 248.083 128.401 248.297 127.953C248.516 127.5 248.628 127.042 248.633 126.578V125.906H250.07V126.578ZM256.82 125.312H255.336V117.344H256.82V125.312ZM249.227 118.109C249.935 118.109 250.57 118.25 251.133 118.531C251.701 118.812 252.143 119.206 252.461 119.711C252.784 120.211 252.945 120.781 252.945 121.422C252.945 122.057 252.784 122.625 252.461 123.125C252.143 123.62 251.701 124.008 251.133 124.289C250.57 124.565 249.935 124.703 249.227 124.703C248.518 124.703 247.88 124.565 247.312 124.289C246.745 124.008 246.299 123.62 245.977 123.125C245.654 122.625 245.492 122.057 245.492 121.422C245.492 120.781 245.654 120.211 245.977 119.711C246.299 119.206 246.745 118.812 247.312 118.531C247.88 118.25 248.518 118.109 249.227 118.109ZM249.227 119.375C248.789 119.37 248.396 119.453 248.047 119.625C247.703 119.792 247.432 120.031 247.234 120.344C247.042 120.656 246.945 121.016 246.945 121.422C246.945 121.823 247.042 122.18 247.234 122.492C247.432 122.799 247.703 123.039 248.047 123.211C248.396 123.383 248.789 123.469 249.227 123.469C249.659 123.469 250.047 123.383 250.391 123.211C250.734 123.039 251.003 122.799 251.195 122.492C251.393 122.18 251.492 121.823 251.492 121.422C251.492 121.016 251.393 120.656 251.195 120.344C251.003 120.031 250.734 119.792 250.391 119.625C250.047 119.453 249.659 119.37 249.227 119.375ZM262.836 118.375C263.466 118.375 264.034 118.547 264.539 118.891C265.044 119.229 265.453 119.716 265.766 120.352C266.083 120.982 266.279 121.724 266.352 122.578H269.242V117.328H270.711V131.359H269.242V123.781H266.367C266.315 124.677 266.133 125.458 265.82 126.125C265.508 126.792 265.094 127.305 264.578 127.664C264.062 128.023 263.482 128.203 262.836 128.203C262.138 128.203 261.521 128.003 260.984 127.602C260.448 127.195 260.029 126.622 259.727 125.883C259.43 125.138 259.284 124.271 259.289 123.281C259.284 122.297 259.43 121.435 259.727 120.695C260.029 119.951 260.448 119.378 260.984 118.977C261.526 118.576 262.143 118.375 262.836 118.375ZM262.836 119.703C262.414 119.703 262.042 119.849 261.719 120.141C261.396 120.432 261.143 120.849 260.961 121.391C260.784 121.927 260.695 122.557 260.695 123.281C260.695 124.01 260.784 124.646 260.961 125.188C261.143 125.729 261.396 126.146 261.719 126.438C262.042 126.729 262.414 126.875 262.836 126.875C263.258 126.875 263.63 126.729 263.953 126.438C264.276 126.146 264.526 125.729 264.703 125.188C264.885 124.646 264.977 124.01 264.977 123.281C264.977 122.557 264.885 121.927 264.703 121.391C264.526 120.849 264.276 120.432 263.953 120.141C263.63 119.849 263.258 119.703 262.836 119.703ZM285.68 129.578H272.867V128.344H275.93V124.688C275.346 124.365 274.893 123.956 274.57 123.461C274.247 122.966 274.086 122.411 274.086 121.797C274.086 121.073 274.305 120.435 274.742 119.883C275.185 119.331 275.797 118.904 276.578 118.602C277.359 118.294 278.247 118.141 279.242 118.141C280.242 118.141 281.133 118.294 281.914 118.602C282.701 118.904 283.312 119.331 283.75 119.883C284.193 120.435 284.414 121.073 284.414 121.797C284.414 122.406 284.258 122.956 283.945 123.445C283.633 123.93 283.19 124.333 282.617 124.656V128.344H285.68V129.578ZM279.242 119.328C278.513 119.328 277.867 119.43 277.305 119.633C276.742 119.831 276.305 120.117 275.992 120.492C275.68 120.862 275.523 121.297 275.523 121.797C275.523 122.292 275.68 122.727 275.992 123.102C276.305 123.477 276.742 123.768 277.305 123.977C277.867 124.18 278.513 124.281 279.242 124.281C279.966 124.281 280.609 124.18 281.172 123.977C281.74 123.768 282.182 123.477 282.5 123.102C282.818 122.727 282.977 122.292 282.977 121.797C282.977 121.302 282.818 120.867 282.5 120.492C282.188 120.117 281.747 119.831 281.18 119.633C280.617 119.43 279.971 119.328 279.242 119.328ZM281.117 128.344V125.227C280.549 125.367 279.924 125.438 279.242 125.438C278.586 125.438 277.971 125.37 277.398 125.234V128.344H281.117ZM289.133 126.734H287.586L287.445 118.688H289.273L289.133 126.734ZM288.367 130.109C288.169 130.109 287.982 130.06 287.805 129.961C287.633 129.862 287.497 129.727 287.398 129.555C287.299 129.383 287.253 129.198 287.258 129C287.253 128.802 287.299 128.617 287.398 128.445C287.497 128.273 287.633 128.138 287.805 128.039C287.982 127.94 288.169 127.891 288.367 127.891C288.56 127.891 288.742 127.94 288.914 128.039C289.086 128.138 289.221 128.273 289.32 128.445C289.424 128.617 289.477 128.802 289.477 129C289.477 129.198 289.424 129.383 289.32 129.555C289.221 129.727 289.086 129.862 288.914 129.961C288.742 130.06 288.56 130.109 288.367 130.109Z" fill="#090909" fill-opacity="0.2"/>
<path d="M56.0078 131.328H54.5859V124.031H52.8516V130.641H51.4453V117.594H52.8516V122.812H54.5859V117.328H56.0078V131.328ZM49.8672 127.641H44.4297V118.906H49.8672V127.641ZM45.8359 126.453H48.4766V120.078H45.8359V126.453ZM61.7578 117.797C62.4557 117.802 63.0807 117.94 63.6328 118.211C64.1901 118.477 64.6276 118.849 64.9453 119.328C65.263 119.802 65.4245 120.339 65.4297 120.938C65.4245 121.542 65.263 122.081 64.9453 122.555C64.6276 123.029 64.1901 123.398 63.6328 123.664C63.0807 123.93 62.4557 124.062 61.7578 124.062C61.0547 124.062 60.4219 123.93 59.8594 123.664C59.3021 123.398 58.8646 123.029 58.5469 122.555C58.2292 122.081 58.0703 121.542 58.0703 120.938C58.0703 120.339 58.2292 119.802 58.5469 119.328C58.8646 118.849 59.3021 118.477 59.8594 118.211C60.4219 117.94 61.0547 117.802 61.7578 117.797ZM61.7578 119.047C61.3307 119.042 60.9453 119.117 60.6016 119.273C60.263 119.43 59.9974 119.654 59.8047 119.945C59.612 120.232 59.5182 120.562 59.5234 120.938C59.5182 121.318 59.6094 121.654 59.7969 121.945C59.9896 122.237 60.2552 122.464 60.5938 122.625C60.9375 122.781 61.3255 122.859 61.7578 122.859C62.1849 122.859 62.5677 122.779 62.9062 122.617C63.2448 122.456 63.5104 122.232 63.7031 121.945C63.8958 121.654 63.9922 121.318 63.9922 120.938C63.9922 120.562 63.8958 120.232 63.7031 119.945C63.5104 119.654 63.2422 119.43 62.8984 119.273C62.5599 119.117 62.1797 119.042 61.7578 119.047ZM69.3984 124.453H67.9141V117.328H69.3984V124.453ZM69.3984 128.625H61.6797V129.969H69.8672V131.156H60.2422V127.516H67.9297V126.281H60.1953V125.094H69.3984V128.625ZM79.8672 118.531C80.6276 118.531 81.3281 118.703 81.9688 119.047C82.6146 119.385 83.1406 119.958 83.5469 120.766C83.9583 121.568 84.1641 122.625 84.1641 123.938C84.1641 125.245 83.9844 126.365 83.625 127.297C83.2708 128.229 82.7604 128.94 82.0938 129.43C81.4323 129.914 80.6484 130.156 79.7422 130.156C79.0599 130.156 78.4453 130.026 77.8984 129.766C77.3568 129.5 76.9141 129.133 76.5703 128.664C76.2318 128.19 76.0182 127.646 75.9297 127.031H77.6328C77.7526 127.526 77.9948 127.922 78.3594 128.219C78.7292 128.51 79.1901 128.656 79.7422 128.656C80.3203 128.656 80.8151 128.495 81.2266 128.172C81.6432 127.844 81.9609 127.372 82.1797 126.758C82.4036 126.138 82.5182 125.401 82.5234 124.547H82.3828C82.0755 125.026 81.6667 125.401 81.1562 125.672C80.651 125.943 80.0964 126.078 79.4922 126.078C78.8203 126.078 78.2057 125.919 77.6484 125.602C77.0911 125.284 76.6484 124.841 76.3203 124.273C75.9974 123.706 75.8359 123.068 75.8359 122.359C75.8359 121.646 76.0026 120.997 76.3359 120.414C76.6745 119.831 77.1484 119.372 77.7578 119.039C78.3724 118.701 79.0755 118.531 79.8672 118.531ZM79.8984 119.969C79.4505 119.969 79.0443 120.076 78.6797 120.289C78.3151 120.497 78.0286 120.784 77.8203 121.148C77.612 121.508 77.5078 121.901 77.5078 122.328C77.5078 122.76 77.6094 123.156 77.8125 123.516C78.0156 123.875 78.2969 124.159 78.6562 124.367C79.0156 124.57 79.4193 124.672 79.8672 124.672C80.3099 124.672 80.7161 124.562 81.0859 124.344C81.4557 124.125 81.7474 123.836 81.9609 123.477C82.1797 123.112 82.2891 122.724 82.2891 122.312C82.2891 121.906 82.1849 121.523 81.9766 121.164C81.7734 120.805 81.487 120.516 81.1172 120.297C80.7526 120.078 80.3464 119.969 79.8984 119.969ZM90.6328 120.891C90.6276 121.734 90.7812 122.565 91.0938 123.383C91.4115 124.195 91.8516 124.919 92.4141 125.555C92.9818 126.19 93.6224 126.667 94.3359 126.984L93.4453 128.156C92.6484 127.776 91.9427 127.216 91.3281 126.477C90.7135 125.732 90.2396 124.878 89.9062 123.914C89.5781 124.951 89.099 125.867 88.4688 126.664C87.8438 127.461 87.1172 128.062 86.2891 128.469L85.3828 127.219C86.1068 126.896 86.7526 126.406 87.3203 125.75C87.8932 125.094 88.3385 124.341 88.6562 123.492C88.974 122.638 89.1328 121.771 89.1328 120.891V118.5H90.6328V120.891ZM97.0859 131.359H95.6016V117.328H97.0859V131.359ZM100.305 124.047C100.56 123.76 100.844 123.544 101.156 123.398C101.474 123.247 101.81 123.172 102.164 123.172C102.44 123.172 102.711 123.211 102.977 123.289C103.247 123.367 103.565 123.479 103.93 123.625C104.305 123.771 104.617 123.88 104.867 123.953C105.122 124.026 105.383 124.062 105.648 124.062C106.383 124.062 106.992 123.75 107.477 123.125V124.625C106.94 125.208 106.32 125.5 105.617 125.5C105.341 125.5 105.068 125.461 104.797 125.383C104.531 125.305 104.216 125.193 103.852 125.047C103.456 124.896 103.133 124.786 102.883 124.719C102.638 124.646 102.383 124.609 102.117 124.609C101.409 124.609 100.805 124.922 100.305 125.547V124.047ZM113.883 128.75L117.805 124.797C118.279 124.297 118.641 123.896 118.891 123.594C119.141 123.292 119.331 122.997 119.461 122.711C119.596 122.419 119.664 122.115 119.664 121.797C119.664 121.432 119.573 121.112 119.391 120.836C119.208 120.56 118.958 120.346 118.641 120.195C118.323 120.044 117.966 119.969 117.57 119.969C117.159 119.969 116.797 120.052 116.484 120.219C116.172 120.385 115.93 120.62 115.758 120.922C115.591 121.224 115.508 121.573 115.508 121.969H113.883C113.878 121.292 114.034 120.693 114.352 120.172C114.669 119.651 115.112 119.247 115.68 118.961C116.247 118.674 116.888 118.531 117.602 118.531C118.32 118.531 118.958 118.672 119.516 118.953C120.078 119.229 120.516 119.612 120.828 120.102C121.141 120.591 121.299 121.141 121.305 121.75C121.299 122.182 121.216 122.599 121.055 123C120.893 123.396 120.617 123.839 120.227 124.328C119.836 124.812 119.284 125.406 118.57 126.109L116.273 128.438V128.531H121.492V130H113.883V128.75ZM127.336 130.156C126.466 130.156 125.719 129.93 125.094 129.477C124.474 129.023 124 128.362 123.672 127.492C123.344 126.617 123.18 125.568 123.18 124.344C123.18 123.13 123.344 122.089 123.672 121.219C124.005 120.344 124.484 119.677 125.109 119.219C125.734 118.76 126.477 118.531 127.336 118.531C128.195 118.531 128.938 118.76 129.562 119.219C130.188 119.677 130.664 120.344 130.992 121.219C131.326 122.089 131.492 123.13 131.492 124.344C131.492 125.568 131.328 126.615 131 127.484C130.672 128.354 130.195 129.018 129.57 129.477C128.945 129.93 128.201 130.156 127.336 130.156ZM127.336 128.672C127.846 128.672 128.284 128.508 128.648 128.18C129.013 127.846 129.292 127.357 129.484 126.711C129.677 126.065 129.773 125.276 129.773 124.344C129.773 123.417 129.674 122.628 129.477 121.977C129.284 121.32 129.005 120.826 128.641 120.492C128.276 120.154 127.841 119.984 127.336 119.984C126.831 119.984 126.396 120.154 126.031 120.492C125.667 120.826 125.385 121.32 125.188 121.977C124.995 122.628 124.898 123.417 124.898 124.344C124.898 125.276 124.995 126.065 125.188 126.711C125.38 127.357 125.659 127.846 126.023 128.18C126.388 128.508 126.826 128.672 127.336 128.672ZM137.93 120.891C137.924 121.734 138.078 122.565 138.391 123.383C138.708 124.195 139.148 124.919 139.711 125.555C140.279 126.19 140.919 126.667 141.633 126.984L140.742 128.156C139.945 127.776 139.24 127.216 138.625 126.477C138.01 125.732 137.536 124.878 137.203 123.914C136.875 124.951 136.396 125.867 135.766 126.664C135.141 127.461 134.414 128.062 133.586 128.469L132.68 127.219C133.404 126.896 134.049 126.406 134.617 125.75C135.19 125.094 135.635 124.341 135.953 123.492C136.271 122.638 136.43 121.771 136.43 120.891V118.5H137.93V120.891ZM144.383 131.359H142.898V117.328H144.383V131.359ZM163.305 125.328H150.523V124.141H156.195V122.656H152.117V117.969H161.727V119.141H153.586V121.469H161.82V122.656H157.633V124.141H163.305V125.328ZM156.898 126.234C157.904 126.234 158.766 126.333 159.484 126.531C160.208 126.729 160.763 127.021 161.148 127.406C161.534 127.786 161.727 128.245 161.727 128.781C161.727 129.318 161.534 129.776 161.148 130.156C160.768 130.536 160.216 130.826 159.492 131.023C158.768 131.221 157.904 131.323 156.898 131.328C155.888 131.323 155.018 131.221 154.289 131.023C153.565 130.826 153.008 130.536 152.617 130.156C152.232 129.776 152.039 129.318 152.039 128.781C152.039 128.245 152.232 127.786 152.617 127.406C153.008 127.021 153.565 126.729 154.289 126.531C155.018 126.333 155.888 126.234 156.898 126.234ZM156.898 127.391C155.826 127.391 154.997 127.513 154.414 127.758C153.831 127.997 153.539 128.339 153.539 128.781C153.539 129.229 153.831 129.573 154.414 129.812C155.003 130.047 155.831 130.161 156.898 130.156C157.956 130.167 158.776 130.052 159.359 129.812C159.948 129.568 160.242 129.224 160.242 128.781C160.242 128.339 159.948 127.997 159.359 127.758C158.776 127.513 157.956 127.391 156.898 127.391ZM175.352 121.5H177.383V122.75H175.352V127.609H173.867V117.312H175.352V121.5ZM175.945 131.031H166.477V126.531H167.961V129.828H175.945V131.031ZM168.289 118.281C168.987 118.281 169.617 118.43 170.18 118.727C170.747 119.023 171.195 119.438 171.523 119.969C171.852 120.495 172.018 121.094 172.023 121.766C172.018 122.432 171.852 123.031 171.523 123.562C171.195 124.089 170.747 124.503 170.18 124.805C169.617 125.102 168.987 125.25 168.289 125.25C167.591 125.25 166.958 125.102 166.391 124.805C165.823 124.503 165.375 124.089 165.047 123.562C164.724 123.031 164.565 122.432 164.57 121.766C164.565 121.094 164.724 120.495 165.047 119.969C165.375 119.438 165.823 119.023 166.391 118.727C166.958 118.43 167.591 118.281 168.289 118.281ZM168.289 119.578C167.862 119.578 167.474 119.672 167.125 119.859C166.781 120.042 166.51 120.299 166.312 120.633C166.115 120.966 166.018 121.344 166.023 121.766C166.018 122.188 166.115 122.565 166.312 122.898C166.51 123.232 166.781 123.492 167.125 123.68C167.474 123.862 167.862 123.953 168.289 123.953C168.716 123.953 169.104 123.862 169.453 123.68C169.802 123.492 170.076 123.232 170.273 122.898C170.471 122.565 170.57 122.188 170.57 121.766C170.57 121.344 170.471 120.966 170.273 120.633C170.076 120.299 169.802 120.042 169.453 119.859C169.104 119.672 168.716 119.578 168.289 119.578ZM193.43 124.969H189.195V128.391H194.898V129.609H182.086V128.391H187.727V124.969H183.68V118.406H193.305V119.609H185.164V123.781H193.43V124.969ZM207.586 127.594H206.102V122.328H203.43V121.125H206.102V117.344H207.586V127.594ZM207.961 131.031H198.492V126.672H199.977V129.828H207.961V131.031ZM200.93 120.172C200.93 120.755 201.065 121.326 201.336 121.883C201.607 122.44 201.997 122.938 202.508 123.375C203.018 123.812 203.617 124.146 204.305 124.375L203.539 125.562C202.768 125.292 202.096 124.891 201.523 124.359C200.951 123.823 200.508 123.203 200.195 122.5C199.888 123.281 199.432 123.966 198.828 124.555C198.224 125.143 197.513 125.583 196.695 125.875L195.93 124.672C196.633 124.432 197.247 124.083 197.773 123.625C198.299 123.161 198.703 122.63 198.984 122.031C199.271 121.432 199.414 120.812 199.414 120.172V119.625H196.383V118.406H203.93V119.625H200.93V120.172ZM220.742 120.562H222.789V121.781H220.742V124.984H219.258V117.281H220.742V120.562ZM220.742 128.891H213.18V130.062H221.227V131.188H211.727V127.844H219.273V126.75H211.695V125.641H220.742V128.891ZM218.102 119.688H209.758V118.516H213.195V117.203H214.68V118.516H218.102V119.688ZM213.93 120.219C214.607 120.219 215.201 120.312 215.711 120.5C216.227 120.682 216.622 120.948 216.898 121.297C217.18 121.641 217.32 122.047 217.32 122.516C217.32 122.984 217.18 123.391 216.898 123.734C216.622 124.078 216.229 124.341 215.719 124.523C215.208 124.706 214.612 124.797 213.93 124.797C213.242 124.797 212.641 124.706 212.125 124.523C211.615 124.341 211.219 124.078 210.938 123.734C210.661 123.391 210.523 122.984 210.523 122.516C210.523 122.047 210.664 121.641 210.945 121.297C211.227 120.948 211.622 120.682 212.133 120.5C212.648 120.312 213.247 120.219 213.93 120.219ZM213.93 121.281C213.534 121.281 213.185 121.333 212.883 121.438C212.586 121.536 212.357 121.68 212.195 121.867C212.034 122.049 211.956 122.266 211.961 122.516C211.956 122.885 212.13 123.18 212.484 123.398C212.844 123.612 213.326 123.719 213.93 123.719C214.534 123.719 215.016 123.612 215.375 123.398C215.74 123.185 215.924 122.891 215.93 122.516C215.924 122.266 215.839 122.049 215.672 121.867C215.505 121.68 215.271 121.536 214.969 121.438C214.672 121.333 214.326 121.281 213.93 121.281ZM234.648 118.562C234.643 119.172 234.865 119.76 235.312 120.328C235.766 120.891 236.378 121.37 237.148 121.766C237.919 122.156 238.758 122.411 239.664 122.531L239.086 123.75C238.326 123.63 237.604 123.422 236.922 123.125C236.24 122.828 235.635 122.461 235.109 122.023C234.583 121.586 234.172 121.096 233.875 120.555C233.573 121.096 233.159 121.586 232.633 122.023C232.112 122.461 231.513 122.828 230.836 123.125C230.159 123.417 229.44 123.625 228.68 123.75L228.086 122.531C228.992 122.411 229.828 122.156 230.594 121.766C231.359 121.375 231.966 120.898 232.414 120.336C232.867 119.768 233.096 119.177 233.102 118.562V117.797H234.648V118.562ZM240.242 126.344H234.555V131.328H233.102V126.344H227.477V125.125H240.242V126.344ZM250.07 126.578C250.07 127.208 250.227 127.815 250.539 128.398C250.857 128.977 251.32 129.448 251.93 129.812C252.341 129.547 252.69 129.232 252.977 128.867C253.268 128.503 253.487 128.122 253.633 127.727C253.779 127.331 253.852 126.948 253.852 126.578V125.906H255.305V126.578C255.305 127.068 255.411 127.542 255.625 128C255.839 128.453 256.154 128.857 256.57 129.211C256.987 129.565 257.492 129.839 258.086 130.031L257.352 131.125C256.674 130.891 256.099 130.552 255.625 130.109C255.156 129.672 254.794 129.159 254.539 128.57C254.305 129.164 253.971 129.695 253.539 130.164C253.112 130.633 252.591 130.995 251.977 131.25C251.331 131.005 250.786 130.654 250.344 130.195C249.906 129.737 249.573 129.208 249.344 128.609C249.083 129.177 248.721 129.68 248.258 130.117C247.794 130.555 247.242 130.891 246.602 131.125L245.852 130.031C246.43 129.823 246.927 129.536 247.344 129.172C247.766 128.807 248.083 128.401 248.297 127.953C248.516 127.5 248.628 127.042 248.633 126.578V125.906H250.07V126.578ZM256.82 125.312H255.336V117.344H256.82V125.312ZM249.227 118.109C249.935 118.109 250.57 118.25 251.133 118.531C251.701 118.812 252.143 119.206 252.461 119.711C252.784 120.211 252.945 120.781 252.945 121.422C252.945 122.057 252.784 122.625 252.461 123.125C252.143 123.62 251.701 124.008 251.133 124.289C250.57 124.565 249.935 124.703 249.227 124.703C248.518 124.703 247.88 124.565 247.312 124.289C246.745 124.008 246.299 123.62 245.977 123.125C245.654 122.625 245.492 122.057 245.492 121.422C245.492 120.781 245.654 120.211 245.977 119.711C246.299 119.206 246.745 118.812 247.312 118.531C247.88 118.25 248.518 118.109 249.227 118.109ZM249.227 119.375C248.789 119.37 248.396 119.453 248.047 119.625C247.703 119.792 247.432 120.031 247.234 120.344C247.042 120.656 246.945 121.016 246.945 121.422C246.945 121.823 247.042 122.18 247.234 122.492C247.432 122.799 247.703 123.039 248.047 123.211C248.396 123.383 248.789 123.469 249.227 123.469C249.659 123.469 250.047 123.383 250.391 123.211C250.734 123.039 251.003 122.799 251.195 122.492C251.393 122.18 251.492 121.823 251.492 121.422C251.492 121.016 251.393 120.656 251.195 120.344C251.003 120.031 250.734 119.792 250.391 119.625C250.047 119.453 249.659 119.37 249.227 119.375ZM262.836 118.375C263.466 118.375 264.034 118.547 264.539 118.891C265.044 119.229 265.453 119.716 265.766 120.352C266.083 120.982 266.279 121.724 266.352 122.578H269.242V117.328H270.711V131.359H269.242V123.781H266.367C266.315 124.677 266.133 125.458 265.82 126.125C265.508 126.792 265.094 127.305 264.578 127.664C264.062 128.023 263.482 128.203 262.836 128.203C262.138 128.203 261.521 128.003 260.984 127.602C260.448 127.195 260.029 126.622 259.727 125.883C259.43 125.138 259.284 124.271 259.289 123.281C259.284 122.297 259.43 121.435 259.727 120.695C260.029 119.951 260.448 119.378 260.984 118.977C261.526 118.576 262.143 118.375 262.836 118.375ZM262.836 119.703C262.414 119.703 262.042 119.849 261.719 120.141C261.396 120.432 261.143 120.849 260.961 121.391C260.784 121.927 260.695 122.557 260.695 123.281C260.695 124.01 260.784 124.646 260.961 125.188C261.143 125.729 261.396 126.146 261.719 126.438C262.042 126.729 262.414 126.875 262.836 126.875C263.258 126.875 263.63 126.729 263.953 126.438C264.276 126.146 264.526 125.729 264.703 125.188C264.885 124.646 264.977 124.01 264.977 123.281C264.977 122.557 264.885 121.927 264.703 121.391C264.526 120.849 264.276 120.432 263.953 120.141C263.63 119.849 263.258 119.703 262.836 119.703ZM285.68 129.578H272.867V128.344H275.93V124.688C275.346 124.365 274.893 123.956 274.57 123.461C274.247 122.966 274.086 122.411 274.086 121.797C274.086 121.073 274.305 120.435 274.742 119.883C275.185 119.331 275.797 118.904 276.578 118.602C277.359 118.294 278.247 118.141 279.242 118.141C280.242 118.141 281.133 118.294 281.914 118.602C282.701 118.904 283.312 119.331 283.75 119.883C284.193 120.435 284.414 121.073 284.414 121.797C284.414 122.406 284.258 122.956 283.945 123.445C283.633 123.93 283.19 124.333 282.617 124.656V128.344H285.68V129.578ZM279.242 119.328C278.513 119.328 277.867 119.43 277.305 119.633C276.742 119.831 276.305 120.117 275.992 120.492C275.68 120.862 275.523 121.297 275.523 121.797C275.523 122.292 275.68 122.727 275.992 123.102C276.305 123.477 276.742 123.768 277.305 123.977C277.867 124.18 278.513 124.281 279.242 124.281C279.966 124.281 280.609 124.18 281.172 123.977C281.74 123.768 282.182 123.477 282.5 123.102C282.818 122.727 282.977 122.292 282.977 121.797C282.977 121.302 282.818 120.867 282.5 120.492C282.188 120.117 281.747 119.831 281.18 119.633C280.617 119.43 279.971 119.328 279.242 119.328ZM281.117 128.344V125.227C280.549 125.367 279.924 125.438 279.242 125.438C278.586 125.438 277.971 125.37 277.398 125.234V128.344H281.117ZM289.133 126.734H287.586L287.445 118.688H289.273L289.133 126.734ZM288.367 130.109C288.169 130.109 287.982 130.06 287.805 129.961C287.633 129.862 287.497 129.727 287.398 129.555C287.299 129.383 287.253 129.198 287.258 129C287.253 128.802 287.299 128.617 287.398 128.445C287.497 128.273 287.633 128.138 287.805 128.039C287.982 127.94 288.169 127.891 288.367 127.891C288.56 127.891 288.742 127.94 288.914 128.039C289.086 128.138 289.221 128.273 289.32 128.445C289.424 128.617 289.477 128.802 289.477 129C289.477 129.198 289.424 129.383 289.32 129.555C289.221 129.727 289.086 129.862 288.914 129.961C288.742 130.06 288.56 130.109 288.367 130.109Z" fill="#090909"/>
<defs>
<linearGradient id="paint0_linear_335_1227" x1="164.748" y1="83.3477" x2="164.748" y2="-128.998" gradientUnits="userSpaceOnUse">
<stop stop-color="#FDF1EF"/>
<stop offset="1" stop-color="#F3C9E4"/>
</linearGradient>
<linearGradient id="paint1_linear_335_1227" x1="125.59" y1="41.8438" x2="125.59" y2="-87.1742" gradientUnits="userSpaceOnUse">
<stop stop-color="#FDF1EF"/>
<stop offset="1" stop-color="#F3C9E4"/>
</linearGradient>
<linearGradient id="paint2_linear_335_1227" x1="203.937" y1="41.8789" x2="203.937" y2="-87.334" gradientUnits="userSpaceOnUse">
<stop stop-color="#FDF1EF"/>
<stop offset="1" stop-color="#F3C9E4"/>
</linearGradient>
<linearGradient id="paint3_linear_335_1227" x1="86.7028" y1="1.93164" x2="86.7028" y2="-47.8896" gradientUnits="userSpaceOnUse">
<stop stop-color="#FDF1EF"/>
<stop offset="1" stop-color="#F3C9E4"/>
</linearGradient>
<linearGradient id="paint4_linear_335_1227" x1="242.821" y1="1.93164" x2="242.821" y2="-47.7016" gradientUnits="userSpaceOnUse">
<stop stop-color="#FDF1EF"/>
<stop offset="1" stop-color="#F3C9E4"/>
</linearGradient>
<linearGradient id="paint5_linear_335_1227" x1="164.748" y1="329.332" x2="164.748" y2="116.986" gradientUnits="userSpaceOnUse">
<stop stop-color="#FDF1EF"/>
<stop offset="1" stop-color="#F3C9E4"/>
</linearGradient>
<linearGradient id="paint6_linear_335_1227" x1="125.59" y1="287.828" x2="125.59" y2="158.81" gradientUnits="userSpaceOnUse">
<stop stop-color="#FDF1EF"/>
<stop offset="1" stop-color="#F3C9E4"/>
</linearGradient>
<linearGradient id="paint7_linear_335_1227" x1="203.937" y1="287.863" x2="203.937" y2="158.65" gradientUnits="userSpaceOnUse">
<stop stop-color="#FDF1EF"/>
<stop offset="1" stop-color="#F3C9E4"/>
</linearGradient>
<linearGradient id="paint8_linear_335_1227" x1="86.7028" y1="247.916" x2="86.7028" y2="198.095" gradientUnits="userSpaceOnUse">
<stop stop-color="#FDF1EF"/>
<stop offset="1" stop-color="#F3C9E4"/>
</linearGradient>
<linearGradient id="paint9_linear_335_1227" x1="242.821" y1="247.916" x2="242.821" y2="198.283" gradientUnits="userSpaceOnUse">
<stop stop-color="#FDF1EF"/>
<stop offset="1" stop-color="#F3C9E4"/>
</linearGradient>
<linearGradient id="paint10_linear_335_1227" x1="292.042" y1="205.289" x2="292.042" y2="-7.05693" gradientUnits="userSpaceOnUse">
<stop stop-color="#FFFBF2"/>
<stop offset="1" stop-color="#F3C9E4"/>
</linearGradient>
<linearGradient id="paint11_linear_335_1227" x1="252.882" y1="163.787" x2="252.882" y2="34.7692" gradientUnits="userSpaceOnUse">
<stop stop-color="#FFFBF2"/>
<stop offset="1" stop-color="#F3C9E4"/>
</linearGradient>
<linearGradient id="paint12_linear_335_1227" x1="331.231" y1="163.82" x2="331.231" y2="34.6074" gradientUnits="userSpaceOnUse">
<stop stop-color="#FFFBF2"/>
<stop offset="1" stop-color="#F3C9E4"/>
</linearGradient>
<linearGradient id="paint13_linear_335_1227" x1="213.995" y1="123.873" x2="213.995" y2="74.0518" gradientUnits="userSpaceOnUse">
<stop stop-color="#FFFBF2"/>
<stop offset="1" stop-color="#F3C9E4"/>
</linearGradient>
<linearGradient id="paint14_linear_335_1227" x1="43.9526" y1="205.289" x2="43.9526" y2="-7.05693" gradientUnits="userSpaceOnUse">
<stop stop-color="#FFFBF2"/>
<stop offset="1" stop-color="#F3C9E4"/>
</linearGradient>
<linearGradient id="paint15_linear_335_1227" x1="4.79477" y1="163.787" x2="4.79477" y2="34.7692" gradientUnits="userSpaceOnUse">
<stop stop-color="#FFFBF2"/>
<stop offset="1" stop-color="#F3C9E4"/>
</linearGradient>
<linearGradient id="paint16_linear_335_1227" x1="83.1441" y1="163.82" x2="83.1441" y2="34.6074" gradientUnits="userSpaceOnUse">
<stop stop-color="#FFFBF2"/>
<stop offset="1" stop-color="#F3C9E4"/>
</linearGradient>
<linearGradient id="paint17_linear_335_1227" x1="122.025" y1="123.873" x2="122.025" y2="74.2398" gradientUnits="userSpaceOnUse">
<stop stop-color="#FFFBF2"/>
<stop offset="1" stop-color="#F3C9E4"/>
</linearGradient>
</defs>
</svg>
