<svg width="335" height="150" viewBox="0 0 335 150" fill="none" xmlns="http://www.w3.org/2000/svg">
<rect width="335" height="150" rx="16" fill="white" fill-opacity="0.9"/>
<rect x="0.75" y="0.75" width="333.5" height="148.5" rx="15.25" stroke="#F9A8D4" stroke-opacity="0.7" stroke-width="1.5"/>
<path d="M48.918 65.4297C53.0195 65.457 56.9023 67.8906 56.9023 75.082C56.9297 81.8086 53.7305 85.7734 48.7539 85.7734C44.7617 85.7734 42.0547 83.2852 41.6445 79.9219H45.6914C46.0195 81.3711 47.168 82.2461 48.7539 82.2461C51.4609 82.2461 52.8828 79.8398 52.8828 75.875H52.7188C51.7891 77.625 49.8477 78.6641 47.6328 78.6641C44.0781 78.6641 41.4531 75.9844 41.4258 72.293C41.4258 68.3008 44.4336 65.4023 48.918 65.4297ZM48.9453 68.6562C46.9219 68.6562 45.418 70.2148 45.4453 72.1836C45.4453 74.125 46.8945 75.6562 48.918 75.6562C50.9141 75.6562 52.4727 74.0703 52.4727 72.1562C52.4453 70.2695 50.9688 68.6562 48.9453 68.6562ZM68.5508 68.7656C68.5508 73.332 70.6289 77.9258 74.8398 79.7031L72.7891 82.4922C69.9453 81.207 67.9766 78.7324 66.8555 75.6562C65.7207 79.0059 63.6836 81.7129 60.6484 83.0938L58.543 80.1953C62.8906 78.3633 64.9961 73.6055 65.0234 68.7656V65.0469H68.5508V68.7656ZM79.707 63.1328V88.0703H76.1797V63.1328H79.707ZM84.9297 74.6445C85.8594 73.6602 87.0352 73.1406 88.3203 73.1406C90.5625 73.1406 92.4766 74.6992 94.7188 74.6992C95.9766 74.6992 97.125 74.1797 98.0273 73.1953V76.5312C97.0977 77.5156 95.9219 78.0352 94.6367 78.0352C92.3945 78.0352 90.4805 76.4766 88.2383 76.4766C86.9805 76.4766 85.832 76.9961 84.9297 77.9805V74.6445ZM101.609 85.5L101.582 82.5195L108.691 75.9844C110.551 74.207 111.535 73.1133 111.535 71.5547C111.535 69.8047 110.195 68.7109 108.391 68.7109C106.531 68.7109 105.328 69.8867 105.328 71.7734H101.418C101.391 67.8906 104.262 65.4297 108.445 65.4297C112.684 65.4297 115.5 67.8359 115.5 71.2812C115.5 73.5234 114.406 75.3828 110.332 79.0742L107.324 82V82.1094H115.773V85.5H101.609ZM126.383 85.7734C121.434 85.7734 118.426 82.082 118.426 75.6016C118.426 69.1211 121.434 65.4297 126.383 65.4297C131.332 65.4297 134.34 69.1484 134.34 75.6016C134.34 82.1094 131.332 85.7734 126.383 85.7734ZM126.383 82.3828C128.68 82.3828 130.156 80.168 130.129 75.6016C130.129 71.0898 128.68 68.793 126.383 68.793C124.086 68.793 122.637 71.0898 122.637 75.6016C122.609 80.168 124.086 82.3828 126.383 82.3828ZM146.043 68.7656C146.043 73.332 148.121 77.9258 152.332 79.7031L150.281 82.4922C147.438 81.207 145.469 78.7324 144.348 75.6562C143.213 79.0059 141.176 81.7129 138.141 83.0938L136.035 80.1953C140.383 78.3633 142.488 73.6055 142.516 68.7656V65.0469H146.043V68.7656ZM157.199 63.1328V88.0703H153.672V63.1328H157.199ZM182.137 63.1328V88.0156H178.801V63.1328H182.137ZM176.941 63.4883V86.8672H173.66V75.1094H171.664C171.336 80.0039 169.258 82.957 166.195 82.957C162.914 82.957 160.781 79.5117 160.781 73.9062C160.781 68.3281 162.914 64.9102 166.195 64.9102C169.189 64.9102 171.24 67.6992 171.637 72.3477H173.66V63.4883H176.941ZM166.195 68.1914C164.801 68.1914 163.98 70.1055 164.008 73.9062C163.98 77.7344 164.801 79.6211 166.195 79.5938C167.617 79.6211 168.465 77.7344 168.465 73.9062C168.465 70.1055 167.617 68.1914 166.195 68.1914ZM197.449 65.1836V77.1328H185.5V65.1836H197.449ZM188.945 67.9727V74.3984H194.004V67.9727H188.945ZM204.504 63.1328V70.2969H207.867V73.168H204.504V81.2891H201.004V63.1328H204.504ZM205.406 84.7891V87.5781H188.371V79.5117H191.844V84.7891H205.406ZM222.359 63.8438C224.369 63.8438 226.119 64.5273 227.309 65.6758H232.914V63.1328H236.387V75.6016H232.914V73.4414H227.336C226.16 74.6309 224.396 75.3281 222.359 75.3281C218.559 75.3281 215.715 72.9492 215.742 69.5586C215.715 66.1953 218.559 63.8438 222.359 63.8438ZM222.359 66.6602C220.418 66.6602 219.023 67.7539 219.051 69.5586C219.023 71.418 220.418 72.5117 222.359 72.5117C224.246 72.5117 225.613 71.418 225.613 69.5586C225.613 67.7539 224.246 66.6602 222.359 66.6602ZM236.387 76.668V83.3945H223.344V85.0078H237.125V87.7422H219.844V80.8242H232.914V79.3477H219.816V76.668H236.387ZM228.812 68.3828C228.881 68.752 228.922 69.1484 228.922 69.5586C228.922 69.9688 228.881 70.3652 228.812 70.7344H232.914V68.3828H228.812ZM260.586 63.1328V88.0703H257.113V78.0352H252.848V75.1641H257.113V71.2539H252.93V68.4102H257.113V63.1328H260.586ZM251.617 65.2109V74.7812H243.961V79.6211C247.037 79.6074 249.771 79.457 252.902 78.9922L253.176 81.8359C249.457 82.4375 246.285 82.4922 242.457 82.4922H240.488V72.0742H248.199V67.9727H240.434V65.2109H251.617ZM286.59 82.2461V85.1172H263.812V82.2461H268.898V76.1484C266.971 75 265.809 73.2363 265.809 71.0352C265.809 67.0156 269.746 64.3359 275.16 64.3359C280.547 64.3359 284.512 67.0156 284.539 71.0352C284.525 73.1816 283.391 74.9316 281.531 76.0938V82.2461H286.59ZM275.16 67.0977C271.605 67.0977 269.254 68.5195 269.254 71.0352C269.254 73.4688 271.605 74.9727 275.16 74.9727C278.688 74.9727 281.066 73.4688 281.094 71.0352C281.066 68.5195 278.688 67.0977 275.16 67.0977ZM272.344 82.2461H278.004V77.4062C277.115 77.584 276.158 77.6797 275.16 77.6797C274.162 77.6797 273.219 77.5977 272.344 77.4062V82.2461ZM293.672 65.7031L293.316 79.5664H289.816L289.461 65.7031H293.672ZM291.594 85.7461C290.309 85.7461 289.27 84.707 289.297 83.4492C289.27 82.1914 290.309 81.1797 291.594 81.1797C292.797 81.1797 293.863 82.1914 293.863 83.4492C293.863 84.707 292.797 85.7461 291.594 85.7461Z" fill="#F9A8D4"/>
</svg>
